<?xml version="1.0" standalone="no"?>
<!DOCTYPE svg PUBLIC "-//W3C//DTD SVG 1.1//EN" "http://www.w3.org/Graphics/SVG/1.1/DTD/svg11.dtd" >
<svg xmlns="http://www.w3.org/2000/svg">
<metadata>Generated by IcoMoon</metadata>
<defs>
<font id="tastyicons" horiz-adv-x="512">
<font-face units-per-em="512" ascent="480" descent="-32" />
<missing-glyph horiz-adv-x="512" />
<glyph unicode="&#x20;" d="" horiz-adv-x="256" />
<glyph unicode="&#xe600;" d="M82.516 342.344c-11.888 0-21.516-9.627-21.516-21.516s9.627-21.515 21.516-21.515h346.969c11.889 0 21.515 9.627 21.515 21.515s-9.627 21.516-21.515 21.516h-346.969zM82.516 245.516c-11.888 0-21.516-9.627-21.516-21.516s9.627-21.515 21.516-21.515h346.969c11.889 0 21.515 9.627 21.515 21.516s-9.627 21.516-21.515 21.516h-346.969zM82.516 148.688c-11.888 0-21.516-9.627-21.516-21.515s9.627-21.515 21.516-21.515h346.969c11.889 0 21.515 9.627 21.515 21.515s-9.627 21.515-21.515 21.515h-346.969z" />
<glyph unicode="&#xe601;" d="M255.755 434.084c-7.006-0.224-12.6-5.958-12.6-12.998 0-0.144 0.001-0.285 0.008-0.426l-0-186.889h-174.317c-0.109 0.002-0.237 0.004-0.365 0.004-7.181 0-13.004-5.822-13.004-13.004s5.822-13.003 13.004-13.003c0.128 0 0.256 0.001 0.384 0.003l174.298-0v-180.405c-0.002-0.108-0.004-0.236-0.004-0.365 0-7.182 5.822-13.003 13.004-13.003s13.003 5.822 13.003 13.003c0 0.128-0.001 0.256-0.003 0.384l0 180.386h192.999c0.108-0.002 0.236-0.003 0.365-0.003 7.182 0 13.003 5.822 13.003 13.003s-5.822 13.004-13.003 13.004c-0.128 0-0.256-0.001-0.384-0.004l-192.98 0v186.911c0.002 0.12 0.007 0.263 0.007 0.406 0 7.182-5.822 13.004-13.003 13.004-0.144 0-0.285-0.002-0.427-0.008z" />
<glyph unicode="&#xe602;" d="M158.37 385.459c-2.524-0.685-4.621-2.212-6.019-4.255l-148.587-148.369c-1.077-1.27-1.865-2.82-2.243-4.524-0.446 1.213-1.455-0.478-1.948-2.377 0.884 2.178 0.882 2.062 0.882 1.946s0.002-0.232 0.006-0.347c-0.004-0.082-0.006-0.197-0.006-0.314s0.002-0.232 0.006-0.347c-0.004-0.082-0.006-0.197-0.006-0.314s0.002-0.232 0.006-0.347c-0.293-0.907-0.462-1.97-0.462-3.071 0-2.923 1.187-5.569 3.104-7.483l149.321-149.32c1.952-2.507 4.971-4.103 8.363-4.103 5.839 0 10.572 4.733 10.572 10.572 0 3.226-1.445 6.115-3.724 8.055l-132.156 132.154h465.799c0.045-0 0.097-0.001 0.149-0.001 5.839 0 10.572 4.733 10.572 10.572s-4.733 10.572-10.572 10.572c-0.053 0-0.105-0-0.158-0.001h-466.452l133.463 133.463c1.974 1.923 3.197 4.606 3.197 7.576 0 5.839-4.733 10.572-10.572 10.572-0.9 0-1.774-0.113-2.609-0.325z" />
<glyph unicode="&#xe603;" d="M16.063 480c-0.011 0-0.024 0-0.037 0-1.196 0-2.36-0.137-3.477-0.394-7.139-1.334-12.549-7.61-12.549-15.15 0-4.476 1.905-8.506 4.949-11.323l229.141-229.042-228.351-228.69c-3.494-2.849-5.708-7.156-5.708-11.98 0-8.516 6.9-15.42 15.412-15.42 4.822 0 9.125 2.215 11.951 5.684l228.607 228.516 228.585-228.488c2.848-3.497 7.152-5.712 11.974-5.712 8.512 0 15.411 6.904 15.411 15.42 0 4.824-2.214 9.13-5.68 11.958l-228.38 228.713 229.13 229.034c3.054 2.826 4.959 6.856 4.959 11.332 0 7.54-5.409 13.816-12.557 15.155-1.104 0.25-2.262 0.385-3.452 0.385-4.354 0-8.288-1.807-11.091-4.712l-228.901-229.24-228.897 229.236c-2.801 2.906-6.723 4.712-11.068 4.721z" />
<glyph unicode="&#xe604;" d="M470.962 433.855c-6.012-0.192-11.313-3.076-14.764-7.479l-298.658-363.87-101.832 101.832c-3.606 4.45-9.072 7.27-15.195 7.27-10.777 0-19.515-8.737-19.515-19.514 0-6.123 2.82-11.589 7.233-15.166l117.112-117.104c3.528-3.512 8.394-5.684 13.767-5.684 5.957 0 11.29 2.668 14.869 6.875l312.225 380.524c2.978 3.407 4.793 7.897 4.793 12.81 0 10.778-8.737 19.514-19.514 19.514-0.184 0-0.367-0.002-0.55-0.007z" />
<glyph unicode="&#xe605;" d="M451.739 267.194h-65.569c-2.942 9.913-6.935 19.531-11.881 28.708l46.305 46.32c3.517 3.518 3.517 9.221 0 12.752l-48.295 48.331c-1.68 1.68-3.979 2.631-6.373 2.631-2.386 0-4.679-0.952-6.373-2.631l-46.334-46.341c-9.105 4.952-18.715 8.926-28.687 11.903v65.533c0 4.974-4.038 9.011-9.012 9.011h-68.373c-4.968 0-9.012-4.037-9.012-9.011v-65.518c-9.956-2.955-19.581-6.942-28.714-11.91l-46.304 46.341c-3.388 3.38-9.379 3.38-12.76 0l-48.295-48.331c-3.511-3.517-3.511-9.227 0-12.752l46.32-46.312c-4.96-9.155-8.946-18.773-11.895-28.714h-65.553c-4.974 0-9.011-4.045-9.011-9.012v-68.365c0-4.974 4.038-9.012 9.011-9.012h65.553c2.95-9.942 6.928-19.551 11.895-28.7l-46.32-46.327c-3.511-3.511-3.511-9.214 0-12.746l48.295-48.339c1.688-1.688 3.979-2.639 6.373-2.639s4.679 0.952 6.38 2.639l46.312 46.327c9.142-4.96 18.751-8.933 28.714-11.896v-65.525c0-4.968 4.045-9.012 9.012-9.012h68.373c4.974 0 9.012 4.045 9.012 9.012v65.538c9.97 2.955 19.58 6.942 28.687 11.875l46.334-46.32c1.68-1.688 3.986-2.639 6.373-2.639 2.394 0 4.679 0.952 6.373 2.639l48.295 48.339c3.517 3.517 3.517 9.214 0 12.746l-46.305 46.334c4.96 9.163 8.94 18.773 11.881 28.692h65.568c4.968 0 9.012 4.038 9.012 9.012v68.365c0 4.96-4.038 9.004-9.012 9.004zM442.728 198.822h-63.433c-4.145 0-7.757-2.833-8.759-6.856-3.165-12.882-8.284-25.232-15.197-36.717-2.142-3.546-1.593-8.096 1.349-11.023l44.798-44.827-35.555-35.599-44.834 44.827c-2.942 2.927-7.498 3.482-11.044 1.334-11.361-6.892-23.704-12.003-36.68-15.183-4.038-1.002-6.856-4.615-6.856-8.759v-63.413h-50.35v63.398c0 4.145-2.833 7.757-6.849 8.759-12.97 3.186-25.326 8.305-36.738 15.204-3.541 2.134-8.103 1.593-11.030-1.341l-44.814-44.827-35.563 35.599 44.813 44.827c2.934 2.934 3.482 7.49 1.349 11.038-6.921 11.448-12.040 23.791-15.204 36.695-0.987 4.038-4.6 6.863-8.752 6.863h-63.434v50.342h63.434c4.153 0 7.765 2.833 8.751 6.856 3.171 12.926 8.291 25.283 15.204 36.724 2.147 3.541 1.593 8.103-1.349 11.030l-44.813 44.819 35.555 35.578 44.814-44.834c2.927-2.934 7.498-3.482 11.037-1.341 11.426 6.928 23.776 12.048 36.717 15.226 4.030 0.987 6.856 4.599 6.856 8.751v63.398h50.35v-63.398c0-4.145 2.825-7.749 6.842-8.745 13.006-3.223 25.354-8.348 36.695-15.226 3.553-2.147 8.103-1.601 11.044 1.341l44.834 44.834 35.555-35.584-44.798-44.82c-2.927-2.92-3.475-7.461-1.356-11.008 6.928-11.535 12.048-23.885 15.204-36.753 1.002-4.030 4.615-6.848 8.752-6.848h63.442v-50.342h0.014zM241.308 296.204c-41.755 0-75.733-33.983-75.733-75.762s33.97-75.762 75.733-75.762c41.786 0 75.776 33.983 75.776 75.762s-33.991 75.762-75.776 75.762zM241.308 162.717c-31.822 0-57.71 25.904-57.71 57.738s25.888 57.738 57.71 57.738c31.844 0 57.753-25.904 57.753-57.738s-25.91-57.738-57.753-57.738z" horiz-adv-x="483" />
<glyph unicode="&#xe606;" d="M218.353 449c-7.41-0.719-13.155-6.916-13.155-14.454 0-0.022 0-0.044 0-0.066v-48.761c-8.724-2.764-17.674-6.491-27.217-11.338l-34.702 34.702c-2.621 2.594-6.228 4.197-10.21 4.197s-7.588-1.602-10.212-4.198l-51.942-51.942c-2.594-2.621-4.197-6.229-4.197-10.21s1.603-7.588 4.198-10.212l34.935-34.701c-4.88-9.725-8.599-18.676-11.352-27.217h-48.984c-8.017-0-14.517-6.5-14.517-14.517v-58.052c0-8.017 6.499-14.517 14.517-14.517h47.636c2.882-15.115 7.174-29.017 12.92-41.279l-35.156-35.156c-2.594-2.622-4.197-6.228-4.197-10.21s1.603-7.589 4.198-10.212l51.942-51.942c2.621-2.594 6.229-4.197 10.21-4.197s7.589 1.603 10.212 4.198l34.921 35.155c5.674-2.567 11.397-5.315 16.787-7.251 5.106-1.833 6.796-2.587 10.21-3.867v-49.438c0-8.017 6.5-14.517 14.517-14.517h72.569c8.017 0 14.516 6.5 14.517 14.517v49.438c3.411 1.279 5.107 2.036 10.21 3.867 5.327 1.911 10.945 4.728 16.553 7.251l35.156-35.156c2.622-2.594 6.228-4.197 10.21-4.197s7.589 1.603 10.212 4.198l51.942 51.942c2.594 2.622 4.197 6.228 4.197 10.21s-1.603 7.589-4.198 10.211l-34.701 34.701c4.983 9.271 9.216 22.548 12.466 41.733h47.637c8.017 0 14.516 6.5 14.517 14.517v58.052c-0 8.017-6.5 14.516-14.517 14.516h-48.984c-2.962 9.412-6.551 18.591-11.118 27.452l34.702 34.468c2.594 2.622 4.197 6.228 4.197 10.21s-1.603 7.589-4.198 10.211l-51.942 51.942c-2.622 2.594-6.228 4.197-10.21 4.197s-7.589-1.603-10.211-4.198l-34.701-34.701c-9.502 4.86-18.507 8.383-27.217 11.118v48.985c-0 8.017-6.5 14.517-14.517 14.517h-72.569c-0.203 0.010-0.441 0.016-0.681 0.016s-0.477-0.005-0.714-0.017zM234.232 419.966h43.535v-44.913c0-0.006 0-0.013 0-0.020 0-7.059 5.038-12.942 11.715-14.247 3.699-0.714 28.632-9.786 39.774-16.583 2.148-1.325 4.751-2.11 7.538-2.11 4.072 0 7.753 1.676 10.389 4.377l31.746 31.76 31.303-31.303-31.758-31.744c-2.704-2.639-4.38-6.32-4.38-10.392 0-2.787 0.785-5.389 2.146-7.601 7.357-12.048 13.374-26.452 16.751-40.309 1.583-6.413 7.277-11.097 14.067-11.119h44.906v-29.018h-44.913c-0.026 0-0.055 0-0.086 0-7.46 0-13.606-5.627-14.425-12.868-3.699-34.756-7.938-39.391-16.339-53.137-1.325-2.148-2.11-4.751-2.11-7.538 0-4.072 1.676-7.753 4.377-10.389l31.76-31.746-31.303-31.303-31.743 31.758c-2.639 2.704-6.32 4.38-10.392 4.38-2.786 0-5.389-0.785-7.601-2.146-4.837-2.958-13.603-6.729-21.939-9.72s-15.284-4.719-22.002-8.394c-4.497-2.525-7.485-7.264-7.486-12.7v-44.912h-43.535v44.913c0 5.437-2.988 10.175-7.413 12.663-6.787 3.707-13.737 5.438-22.075 8.431s-17.090 6.752-22.002 9.756c-2.148 1.325-4.751 2.11-7.537 2.11-4.072 0-7.753-1.676-10.389-4.377l-31.746-31.76-31.303 31.303 31.758 31.743c2.704 2.639 4.381 6.32 4.381 10.392 0 2.786-0.785 5.389-2.146 7.601-6.288 10.286-13.79 33.041-16.531 53.462-1.029 7.065-7.026 12.438-14.286 12.481h-44.908v29.018h44.913c6.793 0.025 12.484 4.712 14.043 11.026 1.572 6.502 10.038 29.381 16.806 40.463 1.325 2.148 2.11 4.751 2.11 7.538 0 4.072-1.677 7.753-4.377 10.389l-31.761 31.746 31.303 31.304 31.744-31.758c2.639-2.704 6.32-4.381 10.392-4.381 2.786 0 5.389 0.785 7.601 2.146 11.174 6.829 33.874 15.188 40.074 16.531 6.544 1.499 11.353 7.272 11.353 14.168 0 0.040 0 0.080-0 0.12v44.906zM256 318.351c-51.944 0-94.351-42.414-94.351-94.351s42.406-94.351 94.351-94.351c51.938 0 94.351 42.413 94.351 94.351s-42.413 94.351-94.351 94.351zM256 289.317c36.247 0 65.317-29.070 65.317-65.317s-29.070-65.317-65.317-65.317c-36.256 0-65.317 29.068-65.317 65.317s29.061 65.317 65.317 65.317z" />
<glyph unicode="&#xe607;" d="M297.009 384.731c-53.088 0-98.895-30.972-120.644-75.791-11.413 7.771-25.21 12.33-40 12.33-37.739 0-68.684-29.662-70.939-66.835-38.108-13.614-65.426-49.981-65.426-92.678 0-54.288 44.208-98.487 98.504-98.487h322.87c49.939 0 90.626 40.678 90.626 90.608-0.010 46.683-35.553 85.274-80.991 90.105 0.123 2.138 0.261 4.279 0.261 6.487 0 74.040-60.221 134.261-134.261 134.261zM297.009 365.861c63.846 0 115.392-51.545 115.392-115.391 0-4.724-0.398-9.458-0.991-14.296l-1.356-11.078 11.148 0.505c0.802 0.036 0.873 0.035 0.174 0.035 39.757 0 71.748-32.008 71.757-71.756 0-39.736-32.010-71.739-71.757-71.739h-322.87c-44.105 0-79.635 35.524-79.635 79.618 0 36.714 24.774 67.397 58.418 76.695l7.165 1.982-0.261 7.426c-0.046 1.415-0.121 2.127-0.121 2.261 0 28.982 23.294 52.279 52.295 52.279 14.501 0 27.522-5.846 36.992-15.339l10.417-10.435 5.113 13.808c16.277 43.984 58.383 75.426 108.121 75.426z" />
<glyph unicode="&#xe608;" d="M408.197 421.84h-28.961v35.551c0 5.305-4.298 9.613-9.613 9.613h-272.82c-14.573 0-26.752-9.059-30.575-21.309-0.792-1.407-1.362-2.922-1.362-4.644v-350.712c0-17.602 14.319-31.921 31.921-31.921h36.55v-66.033c0-3.531 1.93-6.774 5.036-8.466 3.099-1.683 6.882-1.514 9.828 0.423l39.172 25.615 40.95-27.344c1.606-1.075 3.468-1.615 5.337-1.615 1.554 0 3.114 0.385 4.529 1.138 3.13 1.669 5.083 4.93 5.083 8.474v67.801h164.902c5.299 0 9.613 4.307 9.613 9.613v344.207c0.022 5.305-4.284 9.613-9.59 9.613zM96.803 447.778h263.216v-25.939h-263.216c-7.006 0-12.696 4.529-12.696 10.096v5.745c-0.008 5.567 5.69 10.096 12.696 10.096zM224.063 8.571l-31.29 20.892c-1.614 1.075-3.468 1.615-5.328 1.615-1.831 0-3.677-0.522-5.268-1.568l-29.606-19.37v48.262h71.492v-49.831zM233.675 77.635h-136.871c-7.006 0-12.696 5.699-12.696 12.696v314.73c3.898-1.56 8.183-2.446 12.696-2.446h301.788v-324.982h-164.917z" horiz-adv-x="483" />
<glyph unicode="&#xe609;" d="M254.063 370.139c-40.994 0-73.37-40.37-73.37-88.934 0-33.059 15.011-62.386 37.524-77.749v-28.055l-66.305-25.155c-18.393-6.733-30.621-24.864-30.621-44.809v-27.572h269.259v27.572c0 20.043-12.601 38.087-30.963 44.809l-65.98 25.322v30.623c20.368 15.954 33.666 43.823 33.666 75.014 0 48.564-32.214 88.934-73.207 88.934zM254.063 359.104c34.010 0 62.431-34.302 62.431-77.898s-28.421-78.065-62.431-78.065c-34.010 0-62.61 34.469-62.61 78.065s28.601 77.899 62.61 77.899zM108.657 297.409c-31.311 0-55.708-30.712-55.708-67.38 0-23.215 9.786-44.036 24.907-56.195v-21.188l-47.959-18.437c-14.184-5.188-23.898-18.964-23.898-34.457v-21.887h92.906c0.073-0.003 0.158-0.005 0.244-0.005 2.975 0 5.386 2.469 5.386 5.515s-2.412 5.515-5.386 5.515c-0.086 0-0.171-0.002-0.256-0.006l-82.117 0v10.869c0 10.669 6.955 20.509 16.832 24.122l51.491 19.82 3.532 1.2v22.204c6.185-2.87 12.924-4.451 20.023-4.451 6.024 0 11.787 1.153 17.174 3.25v-6.001c-0.004-0.075-0.005-0.162-0.005-0.25 0-3.046 2.412-5.515 5.386-5.515s5.386 2.469 5.386 5.515c0 0.088-0.002 0.175-0.006 0.262l0 11.774c16.74 11.745 27.773 33.695 27.773 58.344 0 36.667-24.397 67.38-55.708 67.38zM403.343 297.409c-31.31 0-55.707-30.712-55.707-67.38 0-24.645 11.022-46.597 27.756-58.344v-11.786c0-3.048 2.413-5.517 5.389-5.517s5.389 2.471 5.389 5.517v6.001c5.388-2.098 11.151-3.25 17.175-3.25 7.103 0 13.837 1.579 20.024 4.451v-22.204l3.533-1.2 51.491-19.82c9.877-3.613 16.832-13.452 16.832-24.122v-10.869h-82.128c-0.073 0.003-0.158 0.005-0.244 0.005-2.974 0-5.386-2.469-5.386-5.515s2.411-5.515 5.386-5.515c0.086 0 0.171 0.002 0.256 0.006l92.894-0v21.887c0 15.492-9.714 29.269-23.898 34.457l-47.975 18.437v21.171c15.128 12.156 24.907 32.989 24.907 56.211 0 36.667-24.381 67.38-55.691 67.38zM108.657 286.374c24.325 0 44.931-24.644 44.931-56.345 0-22.397-10.291-41.277-24.907-50.426-0.697-0.373-1.281-0.872-1.746-1.472-4.786-2.474-11.38-4.446-18.277-4.446-7.695 0-15.007 2.474-21.424 6.851-0.748 0.831-1.736 1.425-2.852 1.664-11.919 9.522-20.656 27.182-20.656 47.828 0 31.7 20.605 56.345 44.931 56.345zM403.343 286.374c24.325 0 44.93-24.644 44.93-56.345 0-20.648-8.752-38.307-21.57-48.11-1.075-0.457-1.949-1.223-2.539-2.19-5.839-3.587-13.142-6.045-20.822-6.045-6.957 0-13.612 2.014-19.567 5.635-0.024 0.014-0.041 0.036-0.065 0.050-0.568 0.377-1.236 0.651-1.953 0.781-13.092 8.649-23.361 27.512-23.361 49.879 0 31.7 20.622 56.345 44.947 56.345zM282.844 199.24v-31.423l3.533-1.384 69.496-26.538c14.056-5.146 23.898-19.24 23.898-34.457v-16.553h-247.721v16.553c0 15.326 9.53 29.322 23.556 34.457l73.386 27.922v29.623c7.799-3.442 16.232-5.317 25.070-5.317 10.269 0 19.983 2.543 28.781 7.118z" />
<glyph unicode="&#xe60a;" d="M467.743 223.998c0 124.849-101.564 226.421-226.422 226.421-124.843 0-226.414-101.571-226.414-226.421 0-64.487 27.626-126.104 75.791-169.049 41.496-36.991 94.996-57.363 150.637-57.363 89.777 0 171.104 53.082 207.288 135.246v0c0 0 0 0 0 0.014 0.043 0.086 0.086 0.152 0.13 0.238 12.603 28.707 18.99 59.303 18.99 90.916zM241.322 432.394c114.908 0 208.404-93.482 208.404-208.398 0-26.199-4.815-51.633-14.239-75.719-3.251 0.959-6.589 1.65-10.029 2.040-0.339 0.029-32.233 3.38-44.618 25.968 16.206 14.642 26.696 39.204 26.587 63.659-0.18 35.663-24.245 60.5-58.562 60.5-0.101 0-0.209 0-0.31 0-16.12-0.079-30.791-5.854-41.309-16.293-11.211-11.125-17.092-26.594-16.992-44.762 0.13-24.237 11.095-49.101 27.344-63.534-13.091-21.332-44.142-24.231-44.618-24.274-2.848-0.281-6.762-1.658-12.998-4.080-0.014-0.014-0.014-0.029-0.043-0.029-11.080 6.041-22.341 15.038-29.233 28.101 21.153 18.968 34.979 51.143 34.827 82.906-0.238 45.966-31.541 77.968-75.538 77.722-20.726-0.101-39.55-7.511-53.017-20.864-14.368-14.261-21.916-34.173-21.787-57.58 0.153-32.464 15.204-65.785 37.33-84.205-17.475-31.807-62.475-35.945-63.088-36.002-11.354-1.111-22.24-5.010-31.994-11.376-15.861 29.839-24.483 63.361-24.483 97.829-0.035 114.894 93.447 208.39 208.362 208.39zM102.689 68.406c-13.993 12.472-26.105 26.681-36.126 42.13 7.511 5.069 15.846 8.226 24.432 9.055 2.502 0.195 60.695 5.378 80.362 51.618 0.008 0.014 0.021 0.029 0.036 0.043 0.043 0.072 0.043 0.152 0.086 0.224 0.153 0.367 0.367 0.692 0.512 1.067 0.043 0.115 0.021 0.224 0.065 0.353 1.578 3.901 0.433 8.435-3.208 10.843-20.533 13.546-35.519 44.712-35.65 74.089-0.094 18.463 5.601 33.912 16.466 44.69 10.078 10.013 24.439 15.565 40.4 15.638 0.115 0 0.216 0 0.325 0 33.983 0 56.917-23.985 57.097-59.794 0.144-28.643-13.518-58.74-33.184-73.189-0.173-0.13-0.258-0.325-0.433-0.462-0.468-0.397-0.851-0.858-1.232-1.356-0.346-0.447-0.692-0.872-0.944-1.363-0.266-0.519-0.411-1.046-0.577-1.608-0.153-0.563-0.318-1.081-0.375-1.672-0.051-0.548 0.014-1.081 0.065-1.65 0.058-0.62 0.137-1.197 0.318-1.802 0.072-0.209 0.029-0.426 0.115-0.62 18.405-47.041 76.389-56.283 79.179-56.688 30.048-3.41 48.827-33.077 49.339-77.543-29.709-15.925-63.361-24.822-98.457-24.822-51.192 0-100.425 18.751-138.613 52.815zM357.413 51.018c-3.958 57.264-35.369 81.486-64.616 84.809-0.072 0.014-1.313 0.224-3.237 0.649 15.276 4.166 37.993 14.224 47.617 38.217 0.058 0.152 0.029 0.31 0.086 0.447 1.463 3.856 0.296 8.291-3.295 10.669-14.787 9.762-25.599 32.325-25.694 53.643-0.072 13.215 3.973 24.237 11.672 31.887 7.123 7.072 17.317 11.001 28.687 11.059 0.086 0 0.166 0 0.253 0 24.483 0 40.387-16.674 40.523-42.555 0.101-20.929-10.251-43.428-24.613-53.493-3.454-2.409-4.521-6.748-3.115-10.489 0.101-0.605 0.086-1.197 0.31-1.774 14.389-36.767 59.829-41.526 61.603-41.691 1.493-0.166 2.927-0.548 4.377-0.872-16.408-33.111-40.906-60.623-70.557-80.506z" horiz-adv-x="483" />
<glyph unicode="&#xe60b;" d="M241.329 450.41c-124.843 0-226.414-101.572-226.414-226.414s101.564-226.414 226.414-226.414c124.857 0 226.421 101.572 226.421 226.414 0.008 124.835-101.572 226.414-226.422 226.414zM122.888 52.662l25.659 27.207c29.147 35.555 33.097 68.466 11.722 97.793-23.314 32.002-31.042 72.1-21.21 110.006 9.732 37.473 23.099 56.938 44.661 64.991 3.294 0.865 30.43 7.757 57.566 6.344 37.005-0.152 64.127-6.95 72.829-18.217 0.281-1.485 0.014-5.118-0.115-7.123-0.411-5.644-0.786-10.971 2.674-15.067 7.224-8.594 15.658-24.072 17.906-41.936-0.253-1.024-0.757-2.394-1.298-4.008-3.179-9.458-8.522-25.298-0.31-36.904 2.365-3.338 6.236-7.988 10.339-12.904 4.166-4.99 9.798-11.744 11.57-14.671 0.959-2.474 1.017-4.017 0.757-4.592-0.677-1.543-5.279-3.207-7.757-4.102-4.433-1.608-9.012-3.266-11.224-7.995-1.212-2.582-1.327-5.522-0.519-7.635 0.31-1.413 0.974-7.887 1.536-17.065-2.674-1.752-6.264-4.815-6.027-10.050 0.209-5.327 4.139-8.349 6.827-10.215 0.029-2.321 0.014-4.455-0.029-6.294-0.101-3.28 0.707-6.337 1.406-9.033 1.608-6.056 2.026-7.678-3.489-11.188-2.478-1.565-11.599-0.829-18.289-0.31-22.075 1.738-59.030 4.679-62.995-43.666-0.75-9.149 12.515-42.759 18.925-57.87-10.662-1.672-21.555-2.575-32.679-2.575-43.963 0.014-84.773 13.741-118.433 37.077zM291.895 21.834c-4.433 9.884-18.527 46.615-18.838 52.736 2.378 28.96 18.139 29.175 43.609 27.178 11.7-0.93 21.793-1.73 29.341 3.049 16.668 10.562 13.041 24.368 11.275 31-0.353 1.356-0.843 3.223-0.829 3.901 0.086 3.014 0.072 6.741-0.029 10.741-0.058 2.704-1.081 4.803-2.422 6.459 1.212 1.65 2.055 3.757 1.918 6.423-0.339 6.416-0.815 13.921-1.449 19.378 5.702 2.069 13.971 5.255 17.67 13.611 2.45 5.558 2.199 12.040-0.771 19.255-0.144 0.302-0.281 0.605-0.439 0.902-2.142 3.907-6.842 9.639-13.769 17.929-3.69 4.427-7.505 9.012-9.452 11.758-2.927 4.138 0.843 15.37 2.661 20.755 1.565 4.642 2.587 7.691 2.241 10.886-2.084 18.183-9.812 37.019-20.843 50.825 0.014 1.081 0.13 2.639 0.209 3.77 0.439 6.163 0.93 13.156-2.913 18.492-15.421 21.376-56.195 26.018-87.275 26.134-31.331 1.629-61.92-6.719-63.212-7.072-0.231-0.065-0.454-0.136-0.692-0.216-27.632-10.094-44.986-34.006-56.29-77.52-11.197-43.141-2.415-88.761 24.094-125.13 16.373-22.486 12.84-46.558-10.685-75.301l-26.566-28.173c-46.111 38.258-75.525 95.954-75.525 160.406 0 114.9 93.482 208.39 208.391 208.39 114.907 0 208.405-93.489 208.405-208.39 0.021-97.49-67.27-179.518-157.817-202.177z" horiz-adv-x="483" />
<glyph unicode="&#xe60c;" d="M241.344-0.103c-116.876 0-211.958 95.075-211.958 211.938 0 79.561 43.926 151.719 114.626 188.342 4.419 2.285 9.856 0.563 12.149-3.857s0.563-9.855-3.849-12.148c-64.703-33.509-104.895-99.553-104.895-172.351 0-106.928 87.001-193.914 193.935-193.914s193.906 86.986 193.906 193.914c0 71.48-39.16 136.961-102.198 170.895-4.361 2.358-6.013 7.822-3.663 12.206 2.35 4.368 7.829 6.027 12.206 3.663 68.885-37.091 111.657-108.644 111.657-186.763 0.008-116.84-95.061-211.923-211.917-211.923zM241.344 198.245c-4.974 0-9.012 4.030-9.012 9.012v231.842c0 4.968 4.037 9.011 9.012 9.011 4.982 0 9.012-4.045 9.012-9.011v-231.842c0-4.981-4.030-9.012-9.012-9.012z" horiz-adv-x="483" />
<glyph unicode="&#xe60d;" d="M256 368c-142.853 0-252.5-133.5-252.5-133.5-2.439-2.793-3.927-6.473-3.927-10.5s1.488-7.707 3.943-10.519c-0.016 0.019 109.63-133.481 252.484-133.481s252.5 133.5 252.5 133.5c2.44 2.793 3.927 6.473 3.927 10.5s-1.488 7.707-3.943 10.519c0.016-0.019-109.63 133.481-252.484 133.481zM256 336c111.871 0 200.19-94.608 216-112-15.81-17.392-104.129-112-216-112s-200.19 94.608-216 112c15.81 17.392 104.129 112 216 112zM221.221 247.386c-19.21 0-34.79 15.915-34.79 35.552s15.579 35.563 34.79 35.563c19.21 0 34.779-15.925 34.779-35.563s-15.569-35.552-34.779-35.552zM255.989 354.053c-57.6 0-104.348-47.776-104.348-106.678 0-58.88 46.748-106.666 104.348-106.666 57.611 0 104.358 47.786 104.358 106.666 0 58.901-46.748 106.678-104.358 106.678z" />
<glyph unicode="&#xe60e;" d="M454.265 318.063c-3.108-0.091-5.966-1.082-8.346-2.72-3.031-1.639-5.56-4.549-6.859-8.056-12.525-12.273-89.495-90.219-177.592-93.365-0.017 0-0.038 0-0.059 0-0.425 0-0.846-0.017-1.262-0.050-1.342-0.035-2.746-0.059-4.149-0.059-90.51 0-170.519 81.165-184.125 95.703-2.718 4.731-7.743 7.866-13.499 7.866-0.165 0-0.33-0.002-0.493-0.007-0.029 0.001-0.092 0.002-0.155 0.002-1.042 0-2.060-0.103-3.045-0.298-4.508-0.976-8.284-3.907-10.398-7.86l-39.441-37.702c-3.67-2.865-6.008-7.291-6.008-12.262 0-8.569 6.947-15.516 15.517-15.516 4.733 0 8.971 2.119 11.816 5.459l31.346 30.287c12.584-12.913 35.441-34.263 65.656-53.656l-24.75-40.125c-1.469-2.343-2.341-5.191-2.341-8.242 0-8.659 7.019-15.678 15.677-15.678 5.607 0 10.526 2.943 13.297 7.37l25.288 41.003c28.006-14.318 60.377-25.296 95.469-27.11v-36.625c-0-0.055-0.001-0.118-0.001-0.183 0-8.57 6.947-15.517 15.516-15.517s15.517 6.947 15.517 15.517c0 0.065-0 0.128-0.001 0.192v37.459c28.951 3.037 55.863 12.108 79.781 23.765l30.281-48.625c2.81-4.491 7.729-7.435 13.336-7.435 8.659 0 15.678 7.019 15.678 15.678 0 3.051-0.872 5.899-2.38 8.308l-29.43 47.262c32.555 20.145 57.142 43.062 70.375 56.64l31.328-30.265c2.864-3.363 7.102-5.482 11.835-5.482 8.57 0 15.517 6.947 15.517 15.516 0 4.971-2.337 9.396-5.974 12.236l-38.113 36.807c-2.347 5.774-7.913 9.771-14.413 9.771-0.14 0-0.28-0.002-0.42-0.006z" />
<glyph unicode="&#xe60f;" d="M256 360c-133.797 0-238.25-139.25-238.25-139.25-1.019-1.329-1.633-3.014-1.633-4.844 0-1.97 0.712-3.774 1.893-5.168-0.009 0.012 104.859-122.738 237.99-122.738s238 122.75 238 122.75c1.171 1.382 1.883 3.186 1.883 5.156 0 1.829-0.614 3.515-1.647 4.863 0.014-0.019-104.44 139.231-238.236 139.231zM256 344c114.815 0 209.458-112.894 221.25-127.5-12.257-13.414-106.176-112.5-221.25-112.5s-208.993 99.086-221.25 112.5c11.791 14.607 106.435 127.5 221.25 127.5zM256 312c-48.507 0-88-39.493-88-88s39.493-88 88-88c48.5 0 88 39.492 88 88s-39.5 88-88 88zM256 296c39.852 0 72-32.14 72-72s-32.148-72-72-72c-39.861 0-72 32.139-72 72s32.139 72 72 72z" />
<glyph unicode="&#xe610;" d="M254.808 418.743c-14.436-0.050-29.165-1.661-43.763-5.094-0.090-0.021-0.177 0.022-0.267 0-92.444-21.981-161.696-109.93-155.675-207.196l-39.052 58.312c-1.579 2.411-4.268 3.982-7.325 3.982-4.819 0-8.726-3.907-8.726-8.726 0-1.764 0.523-3.405 1.423-4.778l61.005-90.822c1.579-2.346 4.224-3.868 7.224-3.868 2.641 0 5.007 1.18 6.599 3.041l70.257 84.092c1.433 1.543 2.313 3.619 2.313 5.899 0 4.793-3.886 8.679-8.679 8.679-2.824 0-5.333-1.348-6.917-3.436l-58.044-69.453c-16.012 95.851 49.624 185.911 139.662 207.196 65.918 15.595 131.952-7.73 173.853-55.049 1.613-1.896 4.001-3.091 6.668-3.091 4.826 0 8.738 3.912 8.738 8.738 0 2.327-0.91 4.442-2.394 6.009-34.505 38.968-83.957 62.934-136.962 65.366-3.296 0.151-6.606 0.212-9.938 0.2zM441.579 265.464c-0.007 0-0.017 0-0.026 0-0.568 0-1.123-0.055-1.661-0.159-1.913-0.538-3.555-1.705-4.69-3.264-0.238-0.018-0.973-1.050-1.462-2.211 1.556 2.489 1.51 2.489 1.462 2.489s-0.094-0-0.14-0.001l-70.24-84.063c-1.237-1.5-1.988-3.442-1.988-5.56 0-4.844 3.927-8.771 8.771-8.771 2.726 0 5.163 1.244 6.772 3.196l56.409 67.815c5.363-84.556-56.438-163.992-138.314-183.341-61.688-14.6-123.409 4.959-165.43 46.377-1.589 1.644-3.814 2.664-6.277 2.664-4.82 0-8.726-3.907-8.726-8.726 0-2.529 1.076-4.808 2.796-6.401 46.14-45.477 114.111-66.993 181.716-50.993 86.625 20.472 152.338 101.305 152.147 190.383l42.847-63.739c1.452-2.88 4.387-4.822 7.775-4.822 4.793 0 8.679 3.886 8.679 8.68 0 2.162-0.791 4.139-2.099 5.659l-60.999 90.844c-1.572 2.389-4.241 3.946-7.274 3.946-0.017 0-0.035 0-0.053 0z" />
<glyph unicode="&#xe611;" d="M256.031 480.203c-6.515-0.005-13.084-0.256-19.688-0.765-81.314-6.266-150.987-50.224-193.172-113.125v108.813h-13.297v-132.985h132.984v13.297h-110.969c39.739 61.462 106.641 104.643 185.281 110.703 133.691 10.308 250.651-89.834 260.985-223.531l-0.422-0.047c0.505-6.517 0.435-13.101 0.422-19.531h13.297c0.014 6.787 0.111 13.919-0.422 20.781-10.353 134.281-122.529 236.506-255 236.39zM13.61 205.156l-13.297-0.828c0.532-6.859 1.433-13.668 2.485-20.36l13.297 2.078c-0.996 6.341-1.979 12.591-2.485 19.11zM495.25 185.625l-4.156-19.938v-0.828l-4.985-16.625 12.875-3.75 4.985 17.453v0.422l4.578 20.36-13.297 2.906zM24.828 149.063l-12.89-3.735 0.844-2.922 0.406-0.406 7.89-20.781v-0.422h0.422l6.235-12.875 11.64 6.235-5.828 11.64-0.406 0.828-7.485 19.531v0.406l-0.828 2.5zM471.563 113.328l-1.672-3.75h-0.406l-9.985-17.453-0.406-0.406-7.485-10.813 10.813-7.89 7.89 11.64 0.422 0.406 10.375 17.453v0.422l2.078 4.563-11.625 5.828zM59.313 81.735l-10.797-7.89 7.484-9.969v-0.422h0.406l14.125-16.203v-0.422h0.422l3.734-3.735 9.141 9.563-3.734 3.735-13.297 15.375-0.422 0.422-7.063 9.547zM426.672 52.235l-5.39-5.813-0.422-0.422-14.547-12.469-0.406-0.406-8.313-5.828 7.89-10.39 8.313 5.828 0.406 0.406 15.797 13.297v0.422h0.422l5.813 5.813-9.563 9.563zM112.516 28.125l-7.484-11.219 17.031-11.219 0.422-0.406h0.422l16.203-9.14 6.234 11.625-15.797 8.735-0.422 0.406-16.609 11.219zM365.172 7.765l-10.39-5.406h-0.406l-18.703-7.469h-0.422l-4.985-1.672 3.735-12.875 5.828 1.656v0.422h0.406l19.531 7.485v0.406h0.422l11.219 5.406-6.235 12.047zM180.656-6.781l-4.563-12.469 7.484-2.485h0.406l21.609-5.406h0.422l9.141-1.656 2.078 13.297-9.141 1.656v-0.406l-20.781 5.39-6.656 2.078zM293.281-15.5l-18.703-2.5h-0.406l-19.125-0.406 0.422-13.297 19.938 0.406 19.531 2.5-1.656 13.297z" />
<glyph unicode="&#xe612;" d="M473.409 277.942l-51.45 58.165 29.207 69.472c1.627 3.865 0.752 8.334-2.222 11.3s-7.425 3.849-11.291 2.222l-69.572-29.198-58.115 51.442c-3.197 2.841-7.805 3.403-11.589 1.437-3.791-1.95-5.981-6.045-5.517-10.3l8.359-75.94-64.839-37.639c-3.643-2.122-5.649-6.252-5.022-10.431 0.611-4.18 3.708-7.566 7.814-8.541l63.038-15.033-263.188-263.203c-4.031-4.031-4.031-10.565 0-14.611 2.016-2.015 4.65-3.023 7.301-3.023s5.286 1.007 7.301 3.023l263.303 263.311 15.058-63.303c0.974-4.113 4.353-7.211 8.533-7.813 0.512-0.091 1.007-0.125 1.512-0.125 3.635 0 7.054 1.923 8.928 5.137l37.705 64.889 75.89-8.359c4.312-0.471 8.342 1.726 10.291 5.509 1.957 3.816 1.387 8.425-1.437 11.613zM384.238 290.463c-4.105 0.463-8.012-1.553-10.060-5.079l-28.091-48.353-13.315 55.968c-0.892 3.791-3.858 6.748-7.649 7.656l-56.009 13.356 48.303 28.041c3.535 2.048 5.526 5.996 5.063 10.060l-6.154 56.042 42.942-38.020c2.957-2.618 7.186-3.328 10.837-1.784l52.234 21.93-21.921-52.144c-1.553-3.642-0.859-7.872 1.784-10.837l38.027-43-55.993 6.161z" />
<glyph unicode="&#xe613;" d="M445.199 464c-12.999-0.002-25.985-4.964-35.902-14.882l-8.613-8.599 71.834-71.835c-0.052-0.041 8.599 8.613 8.599 8.613 19.846 19.836 19.841 51.994 0.014 71.82-9.928 9.924-22.933 14.884-35.932 14.883zM386.108 421.945c-0.233-0.007-0.449-0.020-0.663-0.041-2.56-0.089-5.141-1.37-6.961-3.359l-338.351-338.664c-1.694-1.543-2.874-3.623-3.27-5.971l-20.532-76.865c-0.211-0.784-0.332-1.683-0.332-2.611 0-5.764 4.672-10.435 10.435-10.435 0.928 0 1.828 0.121 2.683 0.349l78.192 20.857c2.293 0.741 4.186 2.186 5.475 4.075l337.892 337.329c1.948 1.906 3.156 4.563 3.156 7.501 0 5.795-4.698 10.493-10.493 10.493-2.858 0-5.45-1.143-7.342-2.997l-336.92-336.877-42.333 42.318 0.029 0.103 336.834 336.849c1.969 1.9 3.192 4.563 3.192 7.512 0 5.763-4.672 10.435-10.435 10.435-0.090 0-0.18-0.001-0.269-0.004z" />
<glyph unicode="&#xe614;" d="M356.174 421.733c-16.561 0.118-33.082-5.286-45.649-17.853h-0.013l-77.601-77.588c-1.561-1.561-2.526-3.717-2.526-6.099 0-4.763 3.862-8.625 8.625-8.625 2.381 0 4.538 0.965 6.099 2.526l77.588 77.601c10.635 10.638 24.973 14.226 40.254 12.327s31.072-9.626 42.404-20.954l17.24-17.24c22.659-22.644 22.659-51.374 0-74.018v-0.013l-103.468-103.455c-21.801-21.801-58.894-13.772-72.948 7.31-1.559 2.39-4.22 3.948-7.245 3.948-4.762 0-8.623-3.861-8.623-8.623 0-1.828 0.569-3.524 1.54-4.918 20.413-30.62 69.545-39.844 99.475-9.914l103.455 103.468c28.296 28.276 28.296 70.135 0 98.411l-17.24 17.24c-14.146 14.141-33.058 23.455-52.464 25.867-2.425 0.301-4.855 0.49-7.298 0.56-0.534 0.015-1.068 0.036-1.603 0.039zM231.452 294.014c-0.538-0.005-1.089-0.021-1.629-0.039-18.732-0.629-38.59-9.361-57.259-28.030l-94.841-94.841c-28.965-28.965-28.963-78.065 0-107.038l17.24-17.24c28.909-28.928 78.579-28.459 115.652 8.613l68.974 68.974c1.561 1.561 2.526 3.717 2.526 6.099 0 4.764-3.861 8.625-8.625 8.625-2.382 0-4.538-0.966-6.099-2.526l-68.974-68.974c-31.901-31.901-69.228-30.671-91.257-8.627l-17.254 17.253c-21.957 21.964-21.956 60.688 0 82.644l94.841 94.841c20.132 20.132 38.453 25.131 54.992 22.375s32.131-14.12 44.097-30.076c1.59-2.105 4.088-3.451 6.9-3.451 4.763 0 8.624 3.861 8.624 8.624 0 1.951-0.647 3.75-1.74 5.195-13.882 18.51-32.781 33.004-55.041 36.714-3.652 0.608-7.36 0.917-11.129 0.886z" />
<glyph unicode="&#xe615;" d="M396.313 464c-26.63 0-51.658-10.376-70.469-29.188-5.030-4.991-56.004-56-59.438-59.453-31.804-31.785-37.537-79.881-17.313-117.61l14.344 14.36c-13.156 29.583-7.695 65.486 16.531 89.703 3.452 3.452 54.377 54.421 59.406 59.422 15.214 15.214 35.433 23.594 56.938 23.594 21.495-0.010 41.717-8.373 56.922-23.578 15.214-15.214 23.594-35.423 23.594-56.938 0-21.495-8.389-41.717-23.594-56.922l-59.422-59.438c-15.205-15.196-35.433-23.563-56.938-23.563-11.502 0-22.603 2.463-32.797 7.031l-14.375-14.375c14.339-7.723 30.438-11.828 47.172-11.828 26.63 0 51.663 10.366 70.485 29.188l59.438 59.438c18.831 18.821 29.188 43.848 29.188 70.469-0.010 26.63-10.373 51.654-29.203 70.484-18.821 18.821-43.858 29.203-70.469 29.203zM342.828 320.297c-0.547-0.005-1.079-0.054-1.596-0.145-2.294-0.246-4.411-1.375-5.944-3.048l-172.756-172.744c-1.77-1.769-2.864-4.214-2.864-6.914 0-5.4 4.377-9.778 9.778-9.778 2.701 0 5.145 1.094 6.915 2.865l173.109 173.11c1.887 1.761 3.063 4.262 3.063 7.038 0 5.312-4.306 9.618-9.618 9.618-0.030 0-0.060 0-0.090-0zM175.125 242.781c-26.631 0-51.663-10.367-70.484-29.188l-59.438-59.438c-18.831-18.821-29.188-43.848-29.188-70.469 0.009-26.63 10.373-51.654 29.203-70.485 18.821-18.831 43.858-29.203 70.469-29.203 26.631 0 51.657 10.366 70.469 29.188 5.030 4.991 56.004 56 59.438 59.453 31.805 31.785 37.538 79.88 17.313 117.61l-14.344-14.36c13.156-29.583 7.695-65.486-16.531-89.703-3.452-3.452-54.376-54.421-59.406-59.422-15.214-15.214-35.423-23.594-56.938-23.594-21.495 0.010-41.717 8.373-56.922 23.578-15.215 15.214-23.594 35.423-23.594 56.938 0 21.495 8.389 41.717 23.594 56.922l59.422 59.438c15.205 15.195 35.423 23.563 56.938 23.563 11.502 0 22.602-2.463 32.797-7.031l14.375 14.375c-14.339 7.722-30.438 11.828-47.172 11.828z" />
<glyph unicode="&#xe616;" d="M217.594 464c-15.792 0-28.797-13.005-28.797-28.797v-19.203h-96c-5.303 0-9.602-4.299-9.602-9.601s4.299-9.601 9.602-9.601h10.5l34.5-388.797v-0.297c1.215-13.425 12.637-23.703 26.109-23.703h184.188c13.476 0 24.909 10.567 26.11 24l34.5 388.797h10.5c5.303 0 9.601 4.299 9.601 9.601s-4.299 9.601-9.601 9.601h-96v19.203c0 15.787-13 28.797-28.797 28.797h-76.813zM217.594 444.797h76.813c5.418 0 9.594-4.184 9.594-9.594v-19.203h-96v19.203c0 5.404 4.19 9.594 9.594 9.594zM122.5 396.797h267l-34.5-387.297c-0.298-3.329-3.851-6.297-6.906-6.297h-184.188c-3.040 0-6.605 2.961-6.906 6.297l-34.5 387.297zM198.359 368.235c-0.747-0.004-1.471-0.092-2.167-0.256-4.221-0.971-7.399-4.788-7.399-9.347 0-0.079 0.001-0.158 0.003-0.237v-316.801c0-5.303 4.299-9.601 9.601-9.601s9.601 4.299 9.601 9.601v316.813c0.001 0.067 0.002 0.147 0.002 0.228 0 5.303-4.298 9.601-9.601 9.601-0.015 0-0.030 0-0.044 0zM255.953 368.235c-0.747-0.005-1.47-0.095-2.165-0.26-4.208-0.969-7.385-4.785-7.385-9.344 0-0.079 0.001-0.158 0.003-0.236v-316.801c-0.005-0.111-0.007-0.241-0.007-0.372 0-5.303 4.298-9.601 9.601-9.601s9.601 4.298 9.601 9.601c0 0.131-0.002 0.261-0.008 0.39l0 272.091v44.703c0.002 0.067 0.002 0.147 0.002 0.227 0 5.303-4.298 9.601-9.601 9.601-0.015 0-0.030 0-0.044 0zM313.547 368.235c-0.747-0.005-1.47-0.095-2.164-0.26-4.208-0.969-7.385-4.785-7.385-9.344 0-0.079 0.001-0.158 0.003-0.236v-316.801c0-5.303 4.299-9.601 9.601-9.601s9.601 4.299 9.601 9.601v316.813c0.002 0.067 0.002 0.147 0.002 0.228 0 5.303-4.298 9.601-9.601 9.601-0.021 0-0.041 0-0.061 0z" />
<glyph unicode="&#xe617;" d="M182.819 423.986c-4.976-0.534-8.816-4.71-8.816-9.784 0-0.020 0-0.039 0-0.059v-42.615h-108.188c-0.022 0-0.049 0-0.076 0-0.698 0-1.379-0.072-2.037-0.211-1.732-0.447-3.276-1.348-4.501-2.57-0.56-0.247-1.807-1.881-2.484-3.785 0.197 0.743-0.29-0.576-0.477-1.988 0.117 1.198-0.166 0.037-0.227-1.182 0.154 1.212 0.151 1.070 0.151 0.927s0.003-0.284 0.009-0.425c-0.026-0.242-0.039-0.546-0.039-0.854 0-0.784 0.092-1.547 0.265-2.278 0.272-1.163 0.75-2.249 1.394-3.212 0.003 0.253 1.018-0.73 2.201-1.467-1.586 0.738-0.52-0.371 0.748-1.195-0.318-0.147 2.261-1.401 5.134-1.425l42.555 0v-318.022c0-0.001 0-0.002 0-0.003 0-5.433 4.404-9.837 9.837-9.837 0.001 0 0.002 0 0.004 0h275.389c0.001 0 0.002 0 0.003 0 5.433 0 9.837 4.404 9.837 9.837 0 0.001 0 0.002 0 0.003v318.021h42.618c0.153-0.008 0.332-0.013 0.512-0.013s0.359 0.005 0.536 0.014c0.772 0.112 1.489 0.303 2.169 0.567-0.272-0.176 0.521 0.111 1.26 0.489-0.245-0.201 0.928 0.483 1.92 1.365-0.491-0.391 0.485 0.634 1.214 1.827-0.891-1.602 0.086-0.571 0.813 0.628-1.026-1.462-0.196-0.294 0.358 1.019-0.94-1.773-0.274-0.514 0.099 0.865-0.4-1.819 0.29-0.563 0.686 0.817-0.538-1.631 0.019-0.144 0.192 1.457-0.148-0.999-0.033-0.225-0.013 0.572-0.040-0.78-0.003-0.289-0.003 0.209 0 0.877-0.115 1.728-0.33 2.537-0.265 1.161-0.74 2.245-1.38 3.211-0.014-0.24-1.029 0.743-2.213 1.481 1.848-0.914 1.135 0.086 0.268 0.928 0.758-1.149-0.402-0.305-1.709 0.262 1.764-0.581 0.438 0.406-1.076 1.026 0.95-0.338-0.903 0.361-2.915 0.455 0.483-0.043 0.305-0.038 0.125-0.038s-0.359-0.005-0.536-0.014l-108.163 0.001v42.618c0 0.001 0 0.002 0 0.004 0 5.433-4.404 9.837-9.837 9.837-0.001 0-0.002 0-0.003 0h-144.25c-0.153 0.008-0.332 0.013-0.512 0.013s-0.359-0.005-0.536-0.014zM193.67 404.32h124.597v-32.791h-124.597v32.791zM128.101 351.861h255.736v-308.194h-255.736v308.195zM183.377 299.297c-0.548-0.034-1.058-0.106-1.553-0.216-0.784-0.063-2.019-0.492-3.121-1.127-0.567-0.279-1.732-1.256-2.634-2.445 0.798 0.88-0.021-0.298-0.561-1.619 0.675 1.87-0.203 0.673-0.786-0.683 0.582 1.356-0.22-0.338-0.498-2.203-0.038 0.64-0.314-0.51-0.371-1.716 0.142 1.147 0.137 0.967 0.137 0.788s0.005-0.359 0.014-0.537l-0.001-183.573c0-0.016 0-0.035 0-0.054 0-1.005 0.15-1.974 0.431-2.888 0.375-1.075 0.93-2.065 1.629-2.935-0.698 0.808 0.014-0.193 0.882-1.034-0.906 1.012 0.108 0.030 1.292-0.708-1.587 0.896-0.571-0.087 0.612-0.825-1.288 0.955 0.075 0.087 1.602-0.416-1.296 0.271 0.238-0.442 1.918-0.729-1.024 0.19 0.118-0.039 1.31-0.056-0.141-0.017 0.215-0.036 0.577-0.036s0.717 0.019 1.067 0.057c1.944 0.276 3.697 1.113 5.099 2.341 0.626 0.529 1.613 1.854 2.233 3.368-0.538-1.286 0.121 0.108 0.429 1.63-0.137-1.308 0.353 0.012 0.543 1.425-0.186-1.227 0.042-0.086 0.060 1.106-0.017-0.418-0.016-0.383-0.016-0.348s0 0.070-0 0.105v183.593c0 0.029 0 0.063 0 0.097 0 0.989-0.146 1.944-0.417 2.844-0.376 1.075-0.93 2.065-1.629 2.935 0.373-0.174-0.964 1.288-2.617 2.279 0.446-0.114-0.964 0.69-2.53 1.118 1.492-0.518 0.332-0.127-0.901 0.037 1.447-0.049 0.132 0.402-1.272 0.557 1.257-0.238 0.405-0.123-0.475-0.123-0.159 0-0.316-0.004-0.474-0.011zM327.735 299.244c-0.016 0-0.035 0-0.054 0-0.361 0-0.716-0.019-1.067-0.057-0.753-0.11-1.47-0.3-2.151-0.565-0.060 0.084-1.146-0.394-2.11-1.038-0.125-0.048-1.402-1.251-2.308-2.709 0.399 0.88-0.47-0.324-1.041-1.683 0.668 1.781-0.175 0.622-0.743-0.686 1.018 1.561 0.463 0.074 0.292-1.527-0.057 0.663-0.283-0.488-0.293-1.689l0.006-183.323c-0-0.029-0-0.063-0-0.098 0-0.989 0.146-1.944 0.418-2.844 0.442-1.296 1.145-2.471 2.048-3.462-0.395 0.296 0.745-0.846 2.099-1.669-1.011 0.58 0.348-0.293 1.873-0.803-1.298 0.286 0.236-0.426 1.917-0.713-1.053 0.111 0.061-0.205 1.235-0.316-1.572 0.307-0.825 0.201-0.055 0.184-0.673 0.014-0.133-0.031 0.417-0.031 1.521 0 2.961 0.345 4.245 0.961 1.339 0.679 2.505 1.656 3.406 2.844-0.798-0.88 0.021 0.298 0.562 1.619-0.509-1.811 0.49-0.495 1.123 1.012-1.012-1.475-0.7-0.365-0.592 0.803 0.251-1.075 0.752 0.25 0.948 1.673-0.125-1.275 0.192-0.161 0.303 1.012-0.349-1.627-0.276-0.946-0.276-0.248 0 0.026 0 0.053-0 0.079v183.594c0 0.016 0 0.035 0 0.054 0 1.005-0.151 1.975-0.431 2.888-0.375 1.075-0.93 2.065-1.629 2.935 0.531-0.582-0.447 0.584-1.635 1.485 1.048-0.638 0.033 0.344-1.151 1.082 1.288-0.955-0.075-0.088-1.603 0.416 1.505-0.379 0.248 0.312-1.132 0.708 1.756-0.666 0.438-0.18-0.975 0.007 1.24-0.097 0.127 0.219-1.046 0.33 1.572-0.306 0.825-0.201 0.055-0.184 1.018-0.087 0.873-0.084 0.729-0.084s-0.289-0.003-0.433-0.010c-0.285 0.034-0.639 0.054-0.999 0.054zM254.572 299.203c-0.869-0.291-1.624-0.662-2.316-1.118 1.48 0.992 0.762 0.801 0.083 0.537 0.304 0.196-0.463-0.064-1.181-0.409 0.382 0.185-0.608-0.37-1.478-1.069 0.582 0.53-0.583-0.447-1.485-1.635 0.377 0.762-0.75-0.682-1.43-2.354 0.38 0.983-0.211-0.415-0.456-1.93 0.121 1.129-0.204-0.162-0.254-1.523 0.067 0.764 0.065 0.623 0.065 0.48s0.003-0.285 0.009-0.426c-0.001-0.011-0.001-0.049-0.001-0.086s0-0.075 0-0.112v-183.592c0-0.004 0-0.009 0-0.013 0-0.721 0.077-1.423 0.225-2.1 0.161-0.8 0.421-1.567 0.766-2.286-0.185 0.382 0.37-0.608 1.069-1.478-0.379 0.175 0.952-1.288 2.598-2.283-0.331 0.048 1.232-0.778 2.964-1.148-1.087 0.13 0.087-0.279 1.336-0.455-1.644 0.285-0.531-0.031 0.643-0.142-1.454 0.262-0.575 0.139 0.333 0.139 1.531 0 2.981 0.35 4.274 0.974 1.339 0.679 2.505 1.656 3.406 2.844-0.798-0.88 0.021 0.298 0.562 1.619-0.228-1.409 0.859 0.505 1.243 2.663 0.098-0.45 0.415 0.663 0.526 1.837-0.341-1.608-0.264-0.906-0.264-0.185 0 0.005 0 0.009 0 0.014v183.597c-0.047 2.127-0.762 4.077-1.942 5.661-0.705 1.063-1.72 2.044-2.903 2.782 1.429-1.046 0.261-0.215-1.052 0.338 1.677-0.745 0.264 0.055-1.303 0.477 1.080-0.186-0.61 0.344-2.421 0.385 0.24-0.008 0.060-0.003-0.12-0.003s-0.359-0.005-0.536-0.014c-0.162 0.013-0.38 0.021-0.6 0.021-0.126 0-0.252-0.003-0.377-0.007z" />
<glyph unicode="&#xe618;" d="M23.25 464c-4.084-0.397-7.25-3.811-7.25-7.966 0-0.012 0-0.024 0-0.036v-463.998c0-4.418 3.582-8 8-8h464c4.418 0 8 3.582 8 8v464c-0 4.418-3.582 8-8 8h-464c-0.112 0.005-0.243 0.009-0.375 0.009s-0.263-0.003-0.393-0.010zM32 448h448v-448h-448v448zM152 368v-16h272v16h-272zM88 304v-16h336v16h-336zM88 240v-16h336v16h-336zM88 176v-16h336v16h-336zM88 112v-16h272v16h-272z" />
<glyph unicode="&#xe619;" d="M16 408v-368h480v368h-480zM32 392h448v-336h-11.172l-75.328 147.25c-7.075 14.161-21.424 23.25-37.25 23.25-14.875 0-28.76-7.913-36.25-20.75l-55.25-94.75c-4.113 5.587-7.579 11.265-19.75 22.5-17.143 15.824-41.334 32.5-69.75 32.5-15.514 0-29.38-8.197-41.5-19.25s-22.755-25.394-31.75-39.5c-13.416-21.038-23.221-41.961-27.344-51.25h-42.657v336zM205.5 347.5c-26.133 0-47.361-17.741-54.75-41.5-1.959 0.33-3.673 1.25-5.75 1.25-21.040 0-38.25-17.466-38.25-38.5 0-20.774 17.251-38.047 38.25-36.75 0.257 0.016 0.492-0.022 0.75 0h59.5c0.087-0.005 0.163 0.004 0.25 0 32.253-1.464 58.5 24.898 58.5 57 0 32.174-26.327 58.5-58.5 58.5zM205.5 331.5c23.523 0 42.5-18.978 42.5-42.5 0-23.54-18.675-42.166-42-41h-61.5c-12.076-1.006-21.75 8.37-21.75 20.75 0 12.389 9.865 22.5 22.25 22.5 2.761 0 5.389-0.736 8-1.75l9.25-3.5 1.5 9.75c3.234 20.244 20.551 35.75 41.75 35.75zM356.25 210.5c9.79 0 18.62-5.483 23-14.25-0-0.037-0.001-0.081-0.001-0.125s0-0.088 0.001-0.132l71.735-139.993h-358.64c4.775 10.334 12.839 26.57 23.156 42.75 8.527 13.373 18.523 26.445 29 36s21.048 15.25 30.75 15.25c22.016 0 43.359-13.813 59-28.25s25.25-28.75 25.25-28.75c1.454-2.172 3.897-3.583 6.671-3.583 2.877 0 5.4 1.519 6.81 3.798l60.77 104.284c4.637 7.947 13.295 13 22.5 13z" />
<glyph unicode="&#xe61a;" d="M488 408.188l-463.969-0.25c-0.713-0.051-1.376-0.188-2.004-0.4-0.276 0.005-0.972-0.232-1.618-0.553 1.084 0.453 1.041 0.453 0.997 0.453s-0.088-0-0.131-0.001c-0.91-0.425-1.692-0.98-2.357-1.651 0.947 0.977 0.165 0.422-0.5-0.25 0.68 0.784-0.298-0.079-1.032-1.125 0.548 0.749-0.128-0.202-0.579-1.27 0.627 1.519-0.049 0.569-0.5-0.5 0.578 1.383-0.101 0.253-0.477-1.007 0.95 2.016 0.95 1.972 0.95 1.928s0-0.088 0.001-0.132c-0.44-0.786-0.757-1.71-0.895-2.692 0.645 2.161 0.644 2.117 0.644 2.073s0-0.088 0.001-0.132c-0.44-0.786-0.757-1.71-0.895-2.692 0.645 2.161 0.644 2.117 0.644 2.073s0-0.088 0.001-0.132c-0.159-0.589-0.25-1.272-0.25-1.978 0-0.005 0-0.011 0-0.017v-63.999c-0.006-0.112-0.009-0.243-0.009-0.375s0.003-0.263 0.009-0.394l-0-222.216v-65c0.145-0.78 0.381-1.476 0.703-2.122-0.456 1.047-0.456 0.959-0.456 0.872s0.002-0.175 0.004-0.262c0.145-0.767 0.381-1.463 0.703-2.109-0.028 0.205 0.527-0.577 1.199-1.242-0.977 0.947-0.422 0.164 0.25-0.5-1.402 1.827-1.402 1.783-1.402 1.738s0-0.088 0.001-0.132c0.752-0.778 1.657-1.408 2.669-1.836-1.994 0.675-1.439-0.107-0.767-0.772-0.808 0.867-0.041 0.037 0.868-0.608-0.991 0.874-0.041 0.199 1.027-0.252-2.259 1.474-2.215 1.473-2.171 1.473s0.088 0 0.131 0.001c0.418-0.916 0.973-1.699 1.645-2.363-0.65 1.079 0.256 0.45 1.267 0.022-1.627 1.152-0.703 0.835 0.279 0.697-2.161 0.644-2.117 0.644-2.073 0.644s0.088 0 0.131 0.001c0.418-0.916 0.973-1.699 1.645-2.363-1.364 1.863-1.32 1.863-1.276 1.863s0.088 0 0.131 0.001c0.785-0.44 1.71-0.757 2.692-0.895-2.161 0.644-2.117 0.644-2.073 0.644s0.088 0 0.131 0.001c0.785-0.44 1.71-0.757 2.692-0.895-2.161 0.644-2.117 0.644-2.073 0.644s0.088 0 0.131 0.001c0.695-0.282 1.508-0.471 2.357-0.527-1.576 0.276-1.532 0.276-1.488 0.276s0.088 0 0.131 0.001c0.068-0.002 0.155-0.004 0.244-0.004s0.175 0.002 0.262 0.004c0.024-0.001 0.069-0.002 0.113-0.002s0.088 0 0.131 0.001c0.030-0 0.075-0.001 0.119-0.001s0.088 0 0.131 0.001c0.030-0 0.075-0.001 0.119-0.001s0.088 0 0.131 0.001h463.712c0.112-0.005 0.243-0.009 0.375-0.009s0.263 0.003 0.394 0.010c0.829 0.24 1.568 0.584 2.238 1.027-1.394-0.784-1.264-0.787-1.132-0.787s0.263 0.003 0.394 0.010c0.978 0.592 1.808 1.36 2.454 2.269-0.579-1.334 0.394-0.687 1.193 0.132-0.567-0.373 0.108 0.577 0.558 1.646-0.477-1.704 0.353-0.935 0.998-0.027-0.874-0.991-0.199-0.041 0.252 1.027-0.817-1.429-0.325-0.397-0.070 0.724-0.145-1.106 0.322 0.312 0.363 1.834-0.015-0.281-0.014-0.194-0.014-0.106s-0.002 0.175-0.004 0.262l0 63.988c0.005 0.112 0.009 0.243 0.009 0.375s-0.003 0.263-0.010 0.394l0 222.216c0.010 0.149 0.015 0.324 0.015 0.5s-0.005 0.351-0.017 0.524l0.001 63.976v0.25c0.005 0.112 0.009 0.243 0.009 0.375s-0.003 0.263-0.010 0.394c-0.424 0.898-0.979 1.68-1.651 2.345 1.402-1.827 1.402-1.783 1.402-1.739s-0 0.088-0.001 0.132c-0.351 1.416-1.041 2.646-1.983 3.635 0.734-0.853 0.735-0.81 0.735-0.766s-0 0.088-0.001 0.132c-0.777 0.841-1.728 1.517-2.796 1.968 1.47-0.491 0.427 0.282-0.761 0.778 1.255-0.339 0.259 0.386-0.868 0.858 1.384-0.92 0.459-0.604-0.522-0.465 2.161-0.644 2.117-0.644 2.073-0.644s-0.088-0.001-0.132-0.001c-0.786 0.44-1.71 0.757-2.692 0.895 1.394-0.303 0.462-0.086-0.516-0.044 0.361 0.078-0.332 0.188-1.050 0.203zM32.032 391.938h447.969v-56c-0.005-0.112-0.009-0.243-0.009-0.375s0.003-0.263 0.010-0.394l-0-222.216v-57h-447.719l-0.25 56c0.005 0.112 0.009 0.243 0.009 0.375s-0.003 0.263-0.010 0.394l0.001 222.216c0.010 0.149 0.016 0.324 0.016 0.5s-0.005 0.351-0.017 0.524l0.001 55.976zM199.375 278.953c-0.41-0.056-0.77-0.132-1.12-0.232-3.073-0.179-6.239-3.594-6.239-7.749 0-0.012 0-0.024 0-0.037v-100.998c0.035-4.392 3.603-7.94 8-7.94 1.177 0 2.294 0.254 3.3 0.71l116.449 50.48c2.75 1.305 4.618 4.060 4.618 7.25s-1.868 5.945-4.569 7.23l-116.548 50.52c-1.007 0.491-2.191 0.778-3.442 0.778-0.158 0-0.315-0.005-0.47-0.014zM208.016 258.688l88.5-38.25-88.5-38.25v76.5z" />
<glyph unicode="&#xe61b;" d="M16 464.515v-413.797h413.797v413.797h-413.797zM32.547 447.969h380.688v-380.688h-38.25l-61.313 162.922c-1.155 3.271-4.22 5.572-7.822 5.572-0.526 0-1.042-0.049-1.541-0.143-2.351-0.542-4.316-2.078-5.43-4.142l-77.268-115.601-45 54.313c-1.526 1.763-3.768 2.872-6.268 2.872-3.060 0-5.732-1.66-7.164-4.129l-60.662-101.665h-69.969v380.688zM446.344 414.61l-0.25-380.438h-380.188v-16.547h396.985v396.985h-16.547zM479.453 365.203l-0.265-364.14h-363.875v-16.547l380.422-1.031v1.031h0.265v380.688h-16.547zM139.109 319.172c-21.759 0-39.578-17.807-39.578-39.563 0-21.763 17.822-39.578 39.578-39.578 21.774 0 39.563 17.821 39.563 39.578 0 21.751-17.785 39.563-39.563 39.563zM139.109 302.625c12.833 0 23.016-10.207 23.016-23.015 0-12.82-10.18-23.016-23.016-23.016-12.804 0-23.016 10.202-23.016 23.016 0 12.804 10.215 23.015 23.016 23.015zM303.844 209.265l53.531-141.985h-235.859l49.922 83.265 44.734-53.781c1.528-1.788 3.785-2.914 6.304-2.914 2.857 0 5.377 1.448 6.864 3.651l74.503 111.764z" />
<glyph unicode="&#xe61c;" d="M236 404c-121.31 0-220-98.69-220-220v-30c0-60.65 49.35-110 110-110s110 49.35 110 110c0 60.65-49.35 110-110 110-34.97 0-66.11-16.46-86.27-41.97 17.83 92.14 99 161.97 196.27 161.97 5.52 0 10 4.48 10 10s-4.48 10-10 10zM126 244c49.62 0 90-40.37 90-90s-40.38-90-90-90c-49.62 0-90 40.37-90 90s40.38 90 90 90zM486 404c-121.31 0-220-98.69-220-220v-30c0-60.65 49.35-110 110-110s110 49.35 110 110c0 60.65-49.35 110-110 110-34.97 0-66.11-16.46-86.27-41.97 17.82 92.14 99 161.97 196.27 161.97 5.53 0 10 4.48 10 10s-4.47 10-10 10zM376 244c49.63 0 90-40.37 90-90s-40.37-90-90-90c-49.63 0-90 40.37-90 90s40.37 90 90 90z" />
<glyph unicode="&#xe61d;" d="M257.346 433.997c-14.43-0.228-26.040-11.98-26.040-26.442 0-0.146 0.001-0.291 0.004-0.435l-0-153.465h-158.649c-14.606 0-26.446-11.84-26.446-26.446s11.84-26.446 26.446-26.446h158.649v-160.316c0-14.606 11.84-26.446 26.446-26.446s26.446 11.841 26.446 26.446v160.316h155.139c14.606 0 26.446 11.841 26.446 26.446s-11.841 26.446-26.446 26.446h-155.139v153.486c0.002 0.123 0.003 0.268 0.003 0.413 0 14.606-11.84 26.445-26.445 26.445-0.146 0-0.291-0.001-0.435-0.003z" />
<glyph unicode="&#xe61e;" d="M64.522 348.161c-0.019 0-0.040 0-0.063 0-15.718 0-28.459-12.742-28.459-28.459 0-8.018 3.316-15.262 8.651-20.435l80.635-80.635 110.853-110.567c5.139-5.085 12.209-8.226 20.014-8.226s14.875 3.142 20.017 8.228l191.479 191.193c5.159 5.159 8.351 12.286 8.351 20.159 0 15.744-12.763 28.507-28.507 28.507-7.873 0-15-3.191-20.159-8.351l-171.031-171.332-171.332 171.332c-5.174 5.3-12.389 8.587-20.372 8.587-0.028 0-0.055 0-0.083 0z" />
<glyph unicode="&#xe61f;" d="M256 464c-132.33 0-240-108-240-240 0-133 107.67-240 240-240 132.34 0 240 107 240 240 0 132-107.66 240-240 240zM256 444c121.31 0 220-99.010 220-220 0-122.010-98.69-220-220-220s-220 97.99-220 220c0 120.99 98.69 220 220 220zM256 344c-38.6 0-70-32.010-70-70 0-6 4.48-10 10-10 5.53 0 10 4 10 10 0 27 22.43 50 50 50s50-23 50-50c0-28-22.43-50-50-50-5.52 0-10-5-10-10v-60c0-6 4.48-10 10-10 5.53 0 10 4 10 10v50c33.88 5 60 34 60 70 0 37.99-31.4 70-70 70zM256 124c-11.050 0-20-9-20-20 0-12 8.95-20 20-20 11.040 0 20 8 20 20 0 11-8.96 20-20 20z" />
<glyph unicode="&#xe620;" d="M255.958 464c-132.307 0-239.958-107.651-239.958-240.014 0-132.334 107.651-239.986 239.958-239.986 132.362 0 240.042 107.651 240.042 239.986 0.027 132.362-107.68 240.014-240.042 240.014zM255.958 11.702c-117.043 0-212.256 95.241-212.256 212.284s95.213 212.312 212.256 212.312c117.098 0 212.339-95.241 212.339-212.312s-95.241-212.284-212.339-212.284zM276.736 104.534c0-10.637-8.615-19.281-19.253-19.281-10.61 0-19.197 8.643-19.197 19.281s8.615 19.226 19.197 19.226c10.637 0 19.253-8.587 19.253-19.226zM243.631 180.632v156.353c0 7.646 6.206 13.851 13.851 13.851s13.851-6.206 13.851-13.851v-156.353c0-7.646-6.205-13.851-13.851-13.851s-13.851 6.178-13.851 13.851z" />
<glyph unicode="&#xe621;" d="M39.453 454c-7.578-0.733-13.453-7.067-13.453-14.775 0-0.024 0-0.048 0-0.072v-430.309c0-0.001 0-0.002 0-0.003 0-8.196 6.644-14.84 14.84-14.84 0.002 0 0.002 0 0.004 0h430.313c0.001 0 0.002 0 0.003 0 8.196 0 14.84 6.644 14.84 14.84 0 0.002 0 0.002 0 0.004v430.313c0 0.001 0 0.002 0 0.004 0 8.196-6.644 14.84-14.84 14.84-0.002 0-0.002 0-0.004 0h-430.313c-0.208 0.010-0.451 0.017-0.696 0.017s-0.487-0.006-0.73-0.017zM55.672 424.328h400.656v-400.656h-400.656v400.656z" />
<glyph unicode="&#xe622;" d="M40.839 454c-8.195-0-14.838-6.644-14.839-14.839v-430.322c0-8.195 6.644-14.839 14.839-14.839h430.322c8.195 0 14.839 6.644 14.839 14.839v430.322c-0 8.195-6.644 14.839-14.839 14.839h-430.322zM55.678 424.322h400.643v-103.86h-400.643v103.86zM55.678 290.784h400.643v-118.714h-400.643v118.714zM55.678 142.392h400.643v-118.714h-400.643v118.714z" />
<glyph unicode="&#xe623;" d="M208.344 424.156c-0.075 0.002-0.162 0.004-0.251 0.004-0.564 0-1.114-0.058-1.645-0.169-3.063-0.587-5.506-2.923-6.249-5.929l-62.199-202.062h-114c-0.034 0-0.073 0.001-0.113 0.001-4.419 0-8.001-3.582-8.001-8.001s3.582-8.001 8.001-8.001c0.040 0 0.079 0 0.119 0.001h119.994c0.022 0 0.047-0 0.072-0 3.617 0 6.673 2.399 7.663 5.693l53.514 173.557 50.75-348.5c0.639-3.833 3.932-6.719 7.897-6.719 3.877 0 7.109 2.757 7.844 6.417l51.259 256.051 37.75-81.75c1.272-2.809 4.042-4.731 7.264-4.75h119.986c0.034-0 0.074-0.001 0.113-0.001 4.418 0 8.001 3.582 8.001 8.001s-3.582 8.001-8.001 8.001c-0.040 0-0.079-0-0.119-0.001h-114.994l-45.75 99.25c-1.329 2.685-4.050 4.498-7.193 4.498-3.798 0-6.977-2.646-7.796-6.194l-47.010-234.554-49.25 338.25c-0.543 3.841-3.75 6.782-7.667 6.906z" />
<glyph unicode="&#xe624;" d="M256 459c-68.709 0-119.422-62.070-119.422-127.125v-57.797h-46.234v-285.078h331.313v285.078h-46.234v57.797c0 65.055-50.714 127.125-119.422 127.125zM256 435.89c54.57 0 96.313-51.031 96.313-104.015v-57.797h-192.625v57.797c0 52.985 41.743 104.015 96.313 104.015zM113.453 250.969h285.094v-238.859h-285.094v238.859zM256 181.625c-10.489 0-19.266-8.777-19.266-19.265 0-6.187 3.050-11.769 7.703-15.313v-50.656c0-6.386 5.177-11.563 11.563-11.563s11.563 5.176 11.563 11.563v50.656c4.652 3.541 7.703 9.117 7.703 15.313 0 10.503-8.773 19.265-19.266 19.265z" />
<glyph unicode="&#xe625;" d="M346.611 151.33v-49.142c0-6.185-5.019-11.204-11.204-11.204-6.192 0-11.204 5.019-11.204 11.204v49.142c-4.504 3.413-7.469 8.769-7.469 14.841 0 10.3 8.38 18.673 18.673 18.673 10.3 0 18.673-8.373 18.673-18.673 0-6.072-2.958-11.428-7.469-14.841zM496 274.478v-276.368h-321.185v276.368h42.792v63.408c0 49.403-40.193 89.596-89.595 89.596s-89.603-40.185-89.603-89.596c0-6.192-5.012-11.204-11.204-11.204s-11.204 5.012-11.204 11.204c0 61.764 50.247 112.004 112.011 112.004s112.004-50.24 112.004-112.004v-63.408h255.984zM473.591 252.070h-276.368v-231.552h276.368v231.552z" />
<glyph unicode="&#xe626;" d="M174.156 382.156c-87.198 0-158.156-70.959-158.156-158.156s70.959-158.156 158.156-158.156h163.688c87.198 0 158.156 70.959 158.156 158.156s-70.959 158.156-158.156 158.156h-163.688zM174.156 355.61h163.688c72.678 0 131.609-58.931 131.609-131.61s-58.931-131.61-131.61-131.61h-163.688c-72.678 0-131.609 58.931-131.609 131.61s58.931 131.61 131.609 131.61zM221.625 305.031l-15.641-82.953 18.625-2.438c2.938 4.627 6.968 8.395 12.109 11.297s10.907 4.359 17.297 4.359c10.282 0 18.6-3.276 24.953-9.813s9.531-15.455 9.531-26.765c0-11.899-3.312-21.443-9.922-28.64s-14.687-10.797-24.234-10.797c-7.932 0-14.709 2.551-20.328 7.656s-9.192 12.724-10.734 22.86l-20.828-1.765c1.322-13.587 6.631-24.493 15.922-32.719s21.28-12.344 35.969-12.344c17.921 0 32.066 6.536 42.422 19.61 8.519 10.649 12.781 23.291 12.781 37.906 0 15.35-4.852 27.904-14.547 37.672s-21.586 14.656-35.688 14.656c-10.649 0-20.837-3.383-30.531-10.141l8.703 43.406h64.453v18.953h-80.313z" />
<glyph unicode="&#xe627;" d="M77.102-9.038c-2.050 0-4.102 0.623-5.847 1.846-3.265 2.272-4.939 6.25-4.249 10.171 0.091 0.541 9.169 52.931 15.856 106.075-44.614 38.101-70.091 90.85-70.091 145.595 0 111.587 102.538 202.389 228.581 202.389 126.023 0 228.554-90.793 228.554-202.389 0-111.627-102.531-202.431-228.554-202.431-15.561 0-31.605 1.543-47.731 4.585-37.576-21.433-110.586-64.013-111.35-64.447-1.6-0.928-3.379-1.394-5.168-1.394zM241.349 436.514c-114.73 0-208.075-81.591-208.075-181.882 0-51.045 23.764-98.405 66.909-133.34 2.748-2.214 4.15-5.7 3.724-9.211-4.233-34.49-9.614-69.418-13.115-91.033 25.486 14.822 70.641 41.029 95.985 55.432 2.157 1.23 4.675 1.632 7.112 1.157 16.069-3.265 32.031-4.938 47.452-4.938 114.72 0 208.057 81.607 208.057 181.931 0 100.285-93.335 181.883-208.048 181.883z" horiz-adv-x="483" />
<glyph unicode="&#xe628;" d="M40.017 55.88c-2.13 0-4.219 0.849-5.764 2.442-2.337 2.418-2.914 6.045-1.441 9.063l41.798 85.885c-38.371 32.743-58.61 75.246-58.61 123.288 0 99.039 96.966 179.608 216.155 179.608 121.319 0 223.816-82.251 223.816-179.608 0-10.96-1.225-21.935-3.642-32.632l-15.619 3.53c2.161 9.535 3.25 19.326 3.25 29.101 0 88.679-95.164 163.597-207.805 163.597-110.359 0-200.143-73.389-200.143-163.597 0-45.041 19.903-84.764 57.553-114.883 2.922-2.337 3.835-6.389 2.194-9.751l-34.953-71.82 95.164 42.262c1.762 0.784 3.746 0.897 5.588 0.336 18.781-5.74 40.853-9.775 59.035-10.8l-0.905-15.988c-18.742 1.057-40.413 4.908-59.915 10.615l-112.504-49.964c-1.048-0.464-2.154-0.688-3.251-0.688zM496 111.92c0 66.216-53.87 120.086-120.086 120.086s-120.086-53.87-120.086-120.086c0-66.216 53.87-120.086 120.086-120.086s120.086 53.87 120.086 120.086zM479.988 111.92c0-57.385-46.69-104.075-104.075-104.075s-104.075 46.69-104.075 104.075c0 57.385 46.69 104.075 104.075 104.075s104.075-46.69 104.075-104.075zM445.876 146.56c2.978 3.274 2.738 8.342-0.536 11.312-3.274 2.978-8.334 2.73-11.312-0.536l-74.413-81.851-42.094 42.094c-3.13 3.13-8.19 3.13-11.32 0s-3.13-8.19 0-11.32l53.974-53.974 85.702 94.276z" />
<glyph unicode="&#xe629;" d="M229.281 455.985c-118.302-1.231-213.188-80.4-213.188-179.5 0-48.127 21.517-90.508 58.75-122.5l-42-86.5c-0.495-1.010-0.784-2.198-0.784-3.454 0-4.418 3.582-8.001 8.001-8.001 1.19 0 2.319 0.26 3.333 0.725l112.7 49.979c17.385-5.075 38.822-9.584 59.5-10.75l0.75 16c-20.148 1.135-42.123 5.671-58.75 10.75-0.761 0.264-1.638 0.418-2.55 0.418-1.157 0-2.257-0.245-3.25-0.688l-95.199-42.48 35.25 72c0.5 1.014 0.792 2.209 0.792 3.471 0 2.538-1.182 4.8-3.026 6.267-37.325 29.852-57.517 69.204-57.517 114.762 0 89.527 87.456 163.5 200 163.5 56.276 0 108.375-18.671 146.25-48.5s61.25-70.452 61.25-115c0-9.933-1.109-19.577-3.25-29l15.75-3.5c2.403 10.577 3.5 21.376 3.5 32.5 0 50.156-26.321 95.265-67.25 127.5s-96.447 52-156.25 52c-0.935 0-1.881 0.010-2.813 0zM376.094 231.984c-66.18 0-120-53.821-120-120s53.82-120 120-120c66.18 0 120 53.82 120 120s-53.82 120-120 120zM376.094 215.985c25.894 0 49.535-9.418 67.719-25.015l-146.813-146.578c-15.534 18.167-24.906 41.759-24.906 67.594 0 57.532 46.468 104 104 104zM455.078 179.719c15.594-18.183 25.015-41.844 25.015-67.734 0-57.533-46.467-104-104-104-25.89 0-49.552 9.421-67.735 25.015l146.719 146.719z" />
<glyph unicode="&#xe62a;" d="M397.837 1.9c-1.92 0-3.839 0.524-5.538 1.572l-136.257 83.817-136.316-83.8c-3.695-2.266-8.371-2.055-11.846 0.524-3.466 2.579-5.014 7.010-3.906 11.187l40.087 150.936-124.099 99.493c-3.407 2.731-4.785 7.28-3.466 11.449s5.064 7.085 9.427 7.347l160.939 9.868 59.365 145.237c1.624 3.974 5.488 6.57 9.783 6.57v0c4.296 0 8.159-2.604 9.783-6.578l59.221-145.178 161.065-9.868c4.363-0.262 8.1-3.188 9.428-7.348 1.319-4.168-0.050-8.709-3.466-11.448l-124.022-99.384 40.044-151.113c1.108-4.177-0.44-8.616-3.915-11.195-1.868-1.387-4.084-2.089-6.308-2.089zM256.041 110.272c1.92 0 3.839-0.524 5.538-1.572l119.262-73.367-35.031 132.199c-1.065 4.050 0.346 8.337 3.611 10.958l108.034 86.557-140.367 8.599c-4.050 0.245-7.601 2.798-9.14 6.553l-51.958 127.363-52.085-127.422c-1.539-3.754-5.090-6.299-9.14-6.544l-140.24-8.599 108.118-86.684c3.264-2.621 4.676-6.908 3.602-10.958l-35.056-132.005 119.313 73.35c1.7 1.048 3.619 1.572 5.538 1.572z" />
<glyph unicode="&#xe62b;" d="M495.506 277.125c-1.319 4.168-5.065 7.086-9.428 7.356l-161.065 9.868-59.221 145.178c-1.615 3.974-5.488 6.578-9.783 6.578v0c-4.296 0-8.16-2.596-9.783-6.57l-59.365-145.237-160.939-9.868c-4.363-0.271-8.1-3.188-9.428-7.356-1.319-4.16 0.050-8.709 3.466-11.44l124.098-99.493-40.087-150.928c-1.108-4.177 0.439-8.616 3.906-11.195 3.475-2.579 8.159-2.782 11.846-0.524l136.316 83.8 136.257-83.826c1.7-1.048 3.619-1.572 5.538-1.572 2.224 0 4.439 0.702 6.308 2.089 3.475 2.579 5.022 7.018 3.915 11.195l-40.044 151.113 124.022 99.384c3.408 2.739 4.786 7.28 3.466 11.449z" />
<glyph unicode="&#xe62c;" d="M297.869 464c-107.656 0-195.218-87.562-195.218-195.218 0-49.098 18.368-93.915 48.373-128.235l-127.13-127.096c-6.733-6.733-6.733-17.678 0-24.411 3.384-3.384 7.803-5.041 12.222-5.041s8.839 1.692 12.222 5.041l127.579 127.51c33.457-26.828 75.822-43.021 121.951-43.021 107.691 0 195.287 87.596 195.287 195.218 0 107.691-87.596 195.253-195.287 195.253zM297.869 108.057c-88.597 0-160.69 72.093-160.69 160.69s72.093 160.69 160.69 160.69c88.632 0 160.76-72.093 160.76-160.69s-72.127-160.69-160.76-160.69z" />
<glyph unicode="&#xe62d;" d="M389.108 211.825c-14.369 15.498-33.5 25.752-57.394 30.762v2.078c16.627 6.923 29.647 17.742 39.075 32.455 9.442 14.713 14.149 31.519 14.149 50.389 0 16.269-3.413 30.651-10.254 43.108-6.841 12.47-17.191 22.435-31.038 29.868-12.814 6.923-26.523 11.478-41.167 13.639-14.63 2.161-36.144 3.234-64.538 3.234h-136.605v-386.719h154.787c26.839 0 48.971 2.422 66.368 7.267 17.397 4.858 33.363 12.979 47.911 24.416 12.291 9.51 22.077 21.554 29.344 36.102 7.281 14.534 10.915 31.423 10.915 50.637 0 26.344-7.185 47.251-21.554 62.763zM281.834 285.709c-2.945-6.414-8.313-11.424-16.103-15.071-7.102-3.29-13.983-5.107-20.645-5.451-6.675-0.344-18.32-0.51-34.931-0.51h-12.222v81.798h6.758c17.315 0 30.335-0.137 39.089-0.385 8.739-0.262 16.31-1.775 22.724-4.542 6.758-2.945 11.726-7.707 14.933-14.286 3.193-6.579 4.803-12.979 4.803-19.214 0.014-8.493-1.459-15.924-4.404-22.339zM304.558 125.844c-4.075-7.363-10.529-12.938-19.352-16.751-10.034-4.322-19.902-6.662-29.591-7.019-9.703-0.344-27.184-0.523-52.467-0.523h-5.202v96.882h17.921c17.315 0 31.12-0.137 41.442-0.385 10.295-0.275 18.389-1.514 24.279-3.757 9.69-3.469 16.971-8.589 21.801-15.319 4.858-6.758 7.281-16.103 7.281-28.065 0-9.346-2.036-17.7-6.111-25.063z" />
<glyph unicode="&#xe62e;" d="M249.116 464.005c4.589 0 9.179 0 13.758 0 1.075-0.202 2.151-0.567 3.236-0.596 17.291-0.499 34.334-2.957 50.963-7.671 76.55-21.737 130.374-69.339 161.338-142.606 8.967-21.219 14.219-43.464 16.111-66.478 0.432-5.262 0.989-10.513 1.478-15.774 0-7.613-0.509-14.892-0.586-15.861-0.576-6.817-0.979-13.663-1.68-20.469-2.161-21.036-7.882-41.18-15.544-60.804-6.154-15.765-14.123-30.311-27.651-41.199-20.998-16.898-44.732-22.966-70.923-17.003-27.555 6.269-46.873 23.014-58.202 48.937-0.327 0.74-0.884 1.392-1.344 2.093-52.576-40.623-119.592-31.425-159.802 5.473-44.386 40.728-52.941 106.073-21.891 156.077 14.988 24.118 35.822 41.582 62.561 51.001 40.257 14.181 78.403 8.593 114.042-15.179 0.298 0.922 0.49 1.373 0.586 1.853 3.111 16.418 20.959 25.683 35.995 18.521 10.638-5.070 15.237-13.989 15.237-25.511 0.010-53.498 0-106.995 0.038-160.483 0-2.774 0.25-5.568 0.711-8.305 2.084-12.366 13.115-22.985 25.366-24.579 13.643-1.776 26.682 4.993 32.288 16.706 8.296 17.349 13.864 35.457 16.735 54.534 3.313 22.121 2.755 44.089-1.93 65.816-8.795 40.805-28.803 75.244-60.295 102.799-32.942 28.832-71.462 44.070-115.060 46.537-15.141 0.854-30.148-0.519-45.029-3.495-43.435-8.68-79.411-30.148-107.792-63.906-27.305-32.471-41.63-70.319-43.685-112.708-0.845-17.321 0.931-34.439 5.098-51.299 12.635-51.059 41.621-90.26 86.334-117.662 29.744-18.214 62.407-26.643 97.25-26.835 10.053-0.058 19.413-6.596 23.177-16.274 3.908-10.053 1.863-19.106-5.185-27.171-4.397-5.022-10.341-6.971-16.524-8.488-3.063 0-6.116 0-9.178 0-0.816 0.202-1.642 0.567-2.477 0.576-16.178 0.288-32.144 2.449-47.718 6.587-74.073 19.644-127.877 64.030-160.857 133.255-11.579 24.3-18.358 50.041-20.585 76.934-0.432 5.262-0.989 10.514-1.479 15.774 0 4.589 0.48 15.4 0.585 16.236 1.604 13.202 2.343 26.557 4.935 39.557 8.881 44.501 29.601 83.069 60.669 116.010 24.127 25.587 52.691 44.856 85.374 57.885 21.026 8.392 42.802 13.826 65.412 15.698 5.376 0.442 10.754 0.989 16.139 1.498zM314.865 222.911c0.461 38.74-30.925 72.066-71.5 72.066-41.439 0-70.665-33.853-71.682-69.579-1.133-39.624 30.887-73.939 71.74-73.794 40.517 0.163 71.51 33.095 71.442 71.308z" />
<glyph unicode="&#xe62f;" d="M159.444 429.307c-17.396 0-31.544-14.674-31.544-32.726v-272.42h-68.28c-1.417 0-2.708-0.356-3.913-0.906-2.594-0.875-4.831-2.726-5.864-5.493-3.175-8.415-4.779-17.329-4.779-26.49 0-40.017 31.138-72.579 69.406-72.579h282.582c1.365 0 2.695 0.144 4.038 0.22 0.325-0.023 0.637-0.094 0.962-0.11 0.173-0.007 0.349-0.014 0.522-0.014 0.483 0 0.919 0.193 1.387 0.261 35.313 3.611 62.979 34.611 62.979 72.207v305.324c0.007 18.044-14.149 32.726-31.544 32.726h-275.95zM159.458 410.452h275.936c7.005 0 12.702-6.216 12.702-13.87v-305.31c0-27.99-20.452-51.039-46.445-53.49-28.194 2.435-40.883 28.497-40.883 53.682 0 3.401 0.383 7.071 1.167 11.233 1.094 5.806-0.254 11.151-3.791 15.065-6.017 6.651-15.891 6.611-18.786 6.4h-192.603v272.42c0 7.654 5.698 13.87 12.702 13.87zM286.446 361.494c-11.793 0-23.007-3.821-33.632-11.467-11.454-8.136-17.194-17.935-17.194-29.388 0-6.643 3.66-9.957 10.959-9.957 3.823 0 6.981 2.561 9.461 7.704 3.499 7.812 6.072 12.629 7.731 14.461 4.637 5.15 11.714 7.718 21.162 7.718 8.974 0 16.034-2.155 21.176-6.468 5.822-4.653 8.721-11.299 8.721-19.94 0-11.454-3.571-19.518-10.712-24.156-1.666-1.003-8.13-3.245-19.418-6.73-7.149-2.164-10.712-5.964-10.712-11.453v-33.88c0-2.986 1.065-5.65 3.2-7.965 2.134-2.338 4.672-3.488 7.635-3.488 3.122 0 5.782 1.112 8.007 3.351 2.209 2.239 3.324 4.951 3.324 8.103v26.381c13.527 2.828 24.176 8.479 31.943 16.947 7.759 8.468 11.646 19.432 11.646 32.876 0 14.802-5.312 26.605-15.944 35.389-9.795 7.978-22.243 11.962-37.354 11.962zM285.443 202.591c-3.649 0-6.808-1.255-9.462-3.736-2.654-2.496-3.983-5.577-3.983-9.243 0-3.476 1.361-6.507 4.106-9.077 2.738-2.571 5.846-3.858 9.339-3.858 3.318 0 6.3 1.336 8.954 3.983 2.661 2.661 3.997 5.636 3.997 8.954 0 3.657-1.246 6.747-3.749 9.243-2.473 2.481-5.544 3.736-9.201 3.736zM341.089 105.361c0.704-0.003 1.478-0.077 2.128-0.178-0.882-4.924-1.305-9.428-1.305-13.719 0-22.094 7.288-40.931 19.556-53.916h-247c-27.877-0.007-50.551 24.111-50.551 53.723 0 4.811 0.624 9.495 1.785 14.036l274.713 0.027c0.211 0.017 0.438 0.029 0.673 0.027z" />
<glyph unicode="&#xe630;" d="M68.133 292.1c-37.565 0-68.133-30.561-68.133-68.117s30.559-68.082 68.133-68.082c37.547 0 68.1 30.527 68.1 68.082s-30.544 68.117-68.1 68.117zM257.117 292.1c-37.537 0-68.082-30.561-68.082-68.117s30.537-68.082 68.082-68.082c37.555 0 68.133 30.527 68.133 68.082s-30.577 68.117-68.134 68.117zM443.883 292.1c-37.565 0-68.117-30.561-68.117-68.117s30.543-68.082 68.117-68.082c37.546 0 68.117 30.527 68.117 68.082s-30.57 68.117-68.117 68.117zM68.133 269.067c24.853 0 45.066-20.222 45.066-45.083 0-24.853-20.214-45.050-45.066-45.050-24.862 0-45.1 20.197-45.1 45.050s20.229 45.083 45.1 45.083zM257.117 269.067c24.872 0 45.101-20.222 45.101-45.083 0-24.853-20.229-45.050-45.101-45.050-24.844 0-45.050 20.197-45.050 45.050s20.207 45.083 45.050 45.083zM443.883 269.067c24.872 0 45.083-20.222 45.083-45.083 0-24.853-20.221-45.050-45.083-45.050s-45.101 20.197-45.101 45.050c0 24.853 20.229 45.083 45.101 45.083z" />
<glyph unicode="&#xe631;" d="M255.996 464.004c-132.332 0-239.996-107.665-239.996-240.004s107.656-240.004 239.996-240.004c132.34 0 240.004 107.664 240.004 240.004s-107.664 240.004-240.004 240.004zM255.996 3.101c-121.802 0-220.892 99.098-220.892 220.899s99.090 220.899 220.892 220.899c121.802 0 220.899-99.091 220.899-220.899 0-121.802-99.098-220.899-220.899-220.899zM180.419 303.351h186.718c5.273 0 9.552 4.279 9.552 9.552s-4.279 9.552-9.552 9.552h-186.718c-5.273 0-9.552-4.28-9.552-9.552s4.272-9.552 9.552-9.552zM376.025 189.1h-240.065c-5.273 0-9.552-4.279-9.552-9.552s4.28-9.552 9.552-9.552h240.058c5.273 0 9.552 4.279 9.552 9.552s-4.272 9.552-9.545 9.552zM322.678 144.64h-186.718c-5.273 0-9.552-4.279-9.552-9.552s4.28-9.552 9.552-9.552h186.718c5.273 0 9.552 4.279 9.552 9.552s-4.272 9.552-9.552 9.552zM376.025 233.544h-240.065c-5.273 0-9.552-4.28-9.552-9.552s4.28-9.552 9.552-9.552h240.058c5.273 0 9.552 4.279 9.552 9.552s-4.272 9.552-9.545 9.552zM376.025 278.004h-240.065c-5.273 0-9.552-4.28-9.552-9.552s4.28-9.552 9.552-9.552h240.058c5.273 0 9.552 4.28 9.552 9.552s-4.272 9.552-9.545 9.552z" />
<glyph unicode="&#xe632;" d="M256 464.004c-132.334 0-240-107.666-240-240.007 0-132.334 107.666-240 240-240 132.341 0 240 107.666 240 240 0 132.341-107.659 240.007-240 240.007zM256 444.899c121.803 0 220.895-99.1 220.895-220.903 0-42.81-12.265-82.776-33.433-116.661l-69.87 129.078c-7.153 13.542-21.45 21.955-37.315 21.955-14.718 0-28.519-7.542-36.031-19.685l-50.91-82.471c-14.84 17.011-46.905 47.586-85.612 47.586-45.439 0-82.983-69.533-95.576-95.867-20.931 33.754-33.051 73.507-33.051 116.065 0 121.803 99.1 220.903 220.903 220.903zM256 3.093c-71.428 0-135.008 34.106-175.418 86.849 0.321 0.481 0.749 0.863 0.986 1.421 11.241 25.952 47.907 93.33 82.158 93.33 42.535 0 78.482-50.016 78.834-50.52 1.857-2.613 4.913-4.073 8.101-4.027 3.202 0.107 6.144 1.796 7.825 4.531l58.017 93.972c4.043 6.549 11.623 10.622 19.777 10.622 8.627 0 16.644-4.615 20.465-11.86l74.057-136.789c0.153-0.283 0.375-0.481 0.535-0.749-40.395-52.714-103.952-86.781-175.334-86.781zM135.435 248.435c0.84 0 1.681 0.030 2.537 0.091l54.845 0.016c0.91-0.054 1.819-0.077 2.72-0.077 0 0 0 0 0 0 14.527 0 28.122 5.923 38.27 16.69 9.981 10.577 15.475 24.607 15.475 39.501 0 31.683-25.119 57.452-55.984 57.452-24.202 0-45.011-15.666-52.698-38.446-21.588 1.933-40.425-16.018-40.425-38.156 0.007-20.442 15.819-37.070 35.26-37.070zM137.589 304.679c2.148 0 4.256-0.435 6.45-1.314 2.72-1.093 5.762-0.894 8.291 0.55 2.537 1.437 4.272 3.966 4.722 6.847 2.897 18.669 18.149 32.233 36.245 32.233 20.335 0 36.88-17.202 36.88-38.347 0-10.003-3.645-19.372-10.27-26.388-6.511-6.893-15.161-10.691-24.377-10.691-0.581 0-1.161 0.016-2.232 0.061h-55.709c-0.275 0-0.542-0.015-0.81-0.038-9.514-0.787-17.492 7.505-17.492 17.905 0 10.577 8.215 19.181 18.302 19.181z" />
<glyph unicode="&#xe633;" d="M256 464c-132.339 0-240-107.668-240-240 0-132.339 107.66-240 240-240 132.332 0 240 107.661 240 240 0 132.332-107.668 240-240 240zM256 444.89c121.794 0 220.89-99.089 220.89-220.89s-99.096-220.906-220.891-220.906c-121.802 0-220.891 99.104-220.891 220.906s99.089 220.89 220.891 220.89zM200.859 302.985c-1.595-0.081-3.164-0.567-4.563-1.438-2.797-1.75-4.5-4.808-4.5-8.11v-138.875c0-3.301 1.703-6.367 4.5-8.11 1.543-0.963 3.29-1.453 5.047-1.453 1.436 0 2.866 0.327 4.203 0.985l141.531 69.453c3.271 1.605 5.344 4.94 5.344 8.578 0.007 3.637-2.073 6.958-5.344 8.563l-141.531 69.437c-1.478 0.73-3.093 1.050-4.688 0.969zM210.891 278.11l110.312-54.11-110.313-54.125v108.235z" />
<glyph unicode="&#xe634;" d="M225.605 328.947c-4.157 3.248-10.163 2.506-13.411-1.643l-44.208-56.541c-2.705-3.462-2.705-8.322 0.007-11.784l44.208-56.358c1.887-2.399 4.684-3.661 7.519-3.661 2.064 0 4.142 0.665 5.892 2.041 4.149 3.255 4.883 9.262 1.62 13.411l-39.592 50.474 39.607 50.649c3.248 4.157 2.514 10.163-1.643 13.411zM142.333 264.894l39.623 50.649c3.248 4.157 2.514 10.156-1.643 13.411-4.165 3.248-10.163 2.522-13.411-1.643l-44.222-56.549c-2.705-3.462-2.705-8.322 0.007-11.784l44.222-56.358c1.887-2.399 4.692-3.661 7.519-3.661 2.071 0 4.142 0.665 5.892 2.041 4.157 3.255 4.883 9.262 1.62 13.411l-39.607 50.481zM344.488 193.628l-44.223 56.35c-3.255 4.142-9.262 4.875-13.411 1.62s-4.875-9.262-1.62-13.411l39.607-50.466-39.615-50.664c-3.255-4.149-2.514-10.156 1.643-13.404 1.75-1.368 3.813-2.033 5.877-2.033 2.835 0 5.647 1.261 7.527 3.668l44.223 56.549c2.705 3.469 2.705 8.337-0.007 11.791zM345.572 249.978c-3.24 4.142-9.254 4.875-13.411 1.62-4.149-3.256-4.875-9.262-1.62-13.411l39.592-50.466-39.599-50.664c-3.255-4.157-2.514-10.156 1.643-13.404 1.75-1.368 3.813-2.033 5.877-2.033 2.835 0 5.647 1.261 7.527 3.668l44.207 56.549c2.705 3.462 2.705 8.322-0.007 11.776l-44.207 56.365zM256.004 464c-132.339 0-240.004-107.664-240.004-239.996 0-132.34 107.665-240.004 240.004-240.004 132.332 0 239.996 107.664 239.996 240.004 0 132.332-107.664 239.996-239.996 239.996zM256.004 3.096c-121.802 0-220.899 99.098-220.899 220.899s99.098 220.892 220.899 220.892c121.802 0 220.892-99.091 220.892-220.892s-99.091-220.899-220.892-220.899z" />
<glyph unicode="&#xe635;" d="M485.065 345.659c-0.652 1.562-1.894 2.809-3.461 3.461-0.786 0.32-1.613 0.494-2.445 0.494h-86.195v36.43c16.155 3.013 28.433 17.198 28.433 34.21 0 19.207-15.625 34.831-34.831 34.831-19.2 0-34.825-15.625-34.825-34.831 0-17.018 12.272-31.197 28.426-34.21v-36.43h-247.018v36.43c16.155 3.013 28.433 17.198 28.433 34.21 0 19.207-15.625 34.831-34.831 34.831-19.201 0-34.825-15.625-34.825-34.831 0-17.018 12.272-31.197 28.427-34.21v-36.43h-86.855c-3.532 0-6.398-2.866-6.398-6.399v-134.091c-1.158-2.387-0.813-5.31 1.171-7.288 0.128-0.127 0.288-0.166 0.423-0.281 1.177-1.375 2.86-2.291 4.805-2.291h40.98v-199.941c0-3.531 2.867-6.399 6.398-6.399s6.398 2.866 6.398 6.399v199.941h339.901v-199.941c0-3.531 2.866-6.399 6.399-6.399s6.399 2.866 6.399 6.399v199.941h39.188c3.531 0 6.399 2.866 6.399 6.399v137.56c0 0.825-0.166 1.65-0.493 2.438zM364.531 420.25c0 12.15 9.878 22.035 22.029 22.035s22.035-9.885 22.035-22.035c0-12.15-9.885-22.029-22.035-22.029-12.144 0-22.029 9.879-22.029 22.029zM104.723 420.25c0 12.15 9.879 22.035 22.028 22.035s22.035-9.885 22.035-22.035c0-12.15-9.885-22.029-22.035-22.029s-22.029 9.879-22.029 22.029zM251.079 212.048l124.763 124.763h87.873l-124.763-124.763h-87.873zM149.906 212.048l124.763 124.763h83.072l-124.763-124.763h-83.073zM47.538 212.048l124.763 124.763h84.276l-124.763-124.763h-84.276zM154.207 336.811l-114.309-114.309v114.309h114.309zM357.045 212.048l115.715 115.715v-115.715h-115.715z" />
<glyph unicode="&#xe636;" d="M486.269 136.192c0.008 0.154 0.094 0.298 0.094 0.452v308.24c0 4.018-3.262 7.28-7.28 7.28h-446.168c-4.018 0-7.28-3.261-7.28-7.28v-441.771c0-4.018 3.261-7.28 7.28-7.28h306.771c0.925 0 1.842 0.175 2.7 0.524s1.654 0.851 2.337 1.5l139.397 133.537c0.655 0.625 1.12 1.368 1.493 2.155 0.11 0.225 0.175 0.452 0.255 0.683 0.225 0.64 0.356 1.288 0.401 1.958zM40.195 437.607h431.608v-293.674h-132.118c-4.018 0-7.28-3.262-7.28-7.28v-126.257h-292.211v427.211zM372.241 44.382l-25.275-24.212v109.201h114l-88.725-84.99z" />
<glyph unicode="&#xe637;" d="M422.401 396.342c-0.117 0.134-0.163 0.302-0.288 0.427-0.163 0.163-0.373 0.216-0.543 0.356-43.072 41.216-101.394 66.614-165.579 66.614-132.19 0-239.743-107.553-239.743-239.743 0-64.247 25.453-122.623 66.74-165.711 0.109-0.117 0.147-0.272 0.256-0.387 0.093-0.093 0.21-0.117 0.302-0.202 43.631-45.224 104.787-73.44 172.443-73.44 132.19 0 239.743 107.553 239.743 239.743 0.009 67.608-28.163 128.72-73.331 172.342zM256 448.213c57.336 0 109.695-21.665 149.382-57.197l-316.397-316.397c-35.541 39.687-57.197 92.046-57.197 149.382 0 123.633 100.579 224.213 224.213 224.213zM256-0.213c-60.714 0-115.838 24.296-156.255 63.633l316.832 316.832c39.337-40.417 63.633-95.534 63.633-156.255 0-123.634-100.579-224.213-224.213-224.213z" />
<glyph unicode="&#xe638;" d="M168.073 258.179h-147.411c-1.561-66.602 20.437-120.856 57.699-133.683 33.785-9.606 88.644 11.716 116.298 40.185-19.355 28.005-27.189 56.743-26.584 93.497zM383.55 279.279l-63.002 53.014c-15.572-66.039-91.374-190.355-171.774-216.573 0 0 147.398 0.014 147.411 0 76.926 0 150.098 55.209 195.25 216.573l-107.886-53.014z" />
<glyph unicode="&#xe639;" d="M100 380v-123h123v123h-123zM289 380v-123h123v123h-123zM100 191v-123h123v123h-123zM289 191v-123h123v123h-123z" />
<glyph unicode="&#xe63a;" d="M235.058 211.803h-163.423c-3.248-0.091-6.511 1.182-8.84 3.447s-3.693 5.491-3.693 8.74c0 3.249 1.363 6.475 3.693 8.739s5.592 3.537 8.84 3.446c122.912 0.177 245.823 0.046 368.731 0 3.248 0.091 6.511-1.181 8.841-3.446s3.693-5.492 3.693-8.739c0-3.249-1.363-6.475-3.693-8.74s-5.592-3.538-8.841-3.447h-180.936c-176.571 0.255 161.497-0.24-24.371 0z" />
<glyph unicode="&#xe63b;" d="M329.763 369.129c-45.449 54.13-90.891 88.289-92.805 89.713-3.486 2.594-8.301 2.382-11.537-0.504s-4.005-7.649-1.827-11.406c0.279-0.475 27.408-48.065 26.422-114.163-0.453-31.12-8.066-50.213-15.673-61.583 0.154 16.214-2.579 39.019-13.912 66.017-23.083 54.94-58.215 63.453-59.697 63.781-3.507 0.797-7.161-0.57-9.317-3.464-2.155-2.886-2.405-6.795-0.643-9.938 1.059-1.893 25.501-46.991-10.441-103.466-27.335-42.957-71.052-155.359-31.698-228.596 23.616-43.958 72.221-66.894 144.458-68.195 0.058 0 0.11 0 0.161 0 0.080 0 0.161 0 0.248 0 1.593 0.051 159.568 6.233 165.428 169.717 2.404 66.413-28.432 139.752-89.166 212.082zM400.683 157.704c-5.195-144.793-139.335-151.808-147.49-152.101-65.009 1.213-108.23 20.92-128.47 58.572-35.175 65.478 6.569 171.726 31.018 210.146 25.334 39.808 24.579 75.21 19.685 97.569 8.82-7.774 19.297-20.649 28.161-41.752 19.765-47.079 10.061-79.478 9.975-79.755-1.103-3.405-0.11-7.145 2.536-9.565 2.653-2.418 6.474-3.054 9.755-1.644 1.681 0.723 41.313 18.567 42.417 93.331 0.526 35.555-6.328 65.835-13.496 87.536 50.629-45.551 149.975-149.682 145.911-262.339z" />
<glyph unicode="&#xe63c;" d="M329.771 369.129c-45.457 54.13-90.897 88.289-92.813 89.713-3.486 2.594-8.301 2.382-11.537-0.504s-4.005-7.649-1.827-11.406c0.279-0.475 27.408-48.065 26.422-114.163-0.453-31.12-8.066-50.213-15.673-61.583 0.154 16.214-2.579 39.019-13.912 66.017-23.083 54.94-58.215 63.453-59.697 63.781-3.507 0.797-7.161-0.57-9.317-3.464-2.155-2.886-2.405-6.795-0.643-9.938 1.059-1.893 25.501-46.991-10.441-103.466-27.335-42.957-71.052-155.359-31.698-228.596 23.616-43.958 72.221-66.894 144.458-68.202 0.058 0 0.11 0 0.161 0 0.080 0 0.161 0 0.248 0 1.593 0.058 159.568 6.24 165.428 169.724 2.404 66.413-28.438 139.752-89.159 212.082z" />
<glyph unicode="&#xe63d;" d="M251.534-3.079c-0.080 0-0.173 0-0.252 0-71.662 1.293-120.032 24.345-143.77 68.527-39.023 72.623 3.832 183.32 30.706 225.545 32.674 51.344 10.822 92.221 9.883 93.937-2.722 4.93-2.321 11.040 1.064 15.547 3.387 4.496 9.106 6.647 14.552 5.4 3.866-0.87 38.406-10.101 61.309-64.625 6.898-16.417 10.583-31.322 12.357-44.16 3.078 9.611 5.286 21.999 5.526 37.856 0.928 62.361-24.413 106.555-24.665 106.99-3.431 5.881-2.242 13.352 2.827 17.871 5.079 4.519 12.642 4.85 18.075 0.789 7.47-5.572 182.988-138.452 177.337-295.047-4.656-129.974-109.68-167.131-164.558-168.63-0.126 0-0.252 0-0.389 0zM184.494 355.541c1.328-21.589-2.815-49.513-22.149-79.899-22.983-36.118-62.362-135.785-29.642-196.66 18.441-34.322 58.391-52.305 118.716-53.459 8.638 0.343 131.702 7.642 136.482 141.059 3.478 96.533-73.893 186.706-124.161 234.825 4.656-18.728 8.134-41.449 7.767-66.892-1.11-75.472-42.409-94.039-44.16-94.794-5.149-2.22-11.11-1.202-15.273 2.575-4.143 3.786-5.697 9.633-3.97 14.975 0.331 1.086 8.683 29.745-9.438 72.909-4.451 10.571-9.347 18.865-14.174 25.363z" />
<glyph unicode="&#xe63e;" d="M239.143 460.598c-5.434 4.061-12.996 3.73-18.075-0.789-5.067-4.53-6.258-12-2.827-17.871 0.252-0.435 25.593-44.63 24.665-106.99-0.24-15.856-2.448-28.234-5.526-37.856-1.773 12.835-5.469 27.754-12.357 44.16-22.904 54.525-57.442 63.758-61.309 64.626-5.446 1.235-11.178-0.915-14.552-5.4-3.387-4.507-3.786-10.616-1.064-15.546 0.95-1.717 22.8-42.593-9.883-93.937-26.873-42.226-69.729-152.923-30.706-225.545 23.739-44.183 72.12-67.235 143.77-68.528 0.080 0 0.173 0 0.252 0 0.126 0 0.252 0 0.389 0 54.879 1.487 159.901 38.657 164.558 168.63 5.652 156.595-169.865 289.463-177.337 295.047z" />
<glyph unicode="&#xe63f;" d="M256.779 475.865c-134.9 0-244.848-109.947-244.848-244.848s109.947-244.848 244.848-244.848c134.9-0.779 244.848 109.168 244.848 244.067s-109.947 245.626-244.848 245.626zM256.779 4.885c-123.983 0-225.353 101.37-225.353 225.353s101.37 225.353 225.353 225.353 225.353-101.37 225.353-225.353c0-123.983-101.37-225.353-225.353-225.353zM326.959 308.995h-74.078c-24.953 0-46.006-16.375-53.024-38.989h-15.595c-30.411 0-55.363-24.952-55.363-55.363s24.952-55.363 55.363-55.363h74.078c24.952 0 46.007 16.375 53.024 38.988h15.595c30.411 0 55.363 24.952 55.363 55.363s-24.952 55.363-55.363 55.363zM258.339 178.774h-74.078c-19.495 0-35.869 16.375-35.869 35.869s16.375 35.869 35.869 35.869h13.256c1.56-28.852 25.732-51.465 55.363-51.465h37.429c-6.238-11.697-17.935-20.274-31.971-20.274zM217.791 250.512h41.327c18.714 0 33.529-14.036 35.089-31.971h-41.327c-18.714 0-33.529 14.036-35.089 31.971zM326.959 218.541h-13.255c-1.56 28.851-25.731 51.465-55.363 51.465h-37.429c6.238 11.697 17.934 19.495 31.97 19.495h74.078c19.495 0 35.869-16.375 35.869-35.869s-16.375-35.089-35.869-35.089z" />
<glyph unicode="&#xe640;" d="M258.339 467.288c-134.9 0-244.848-109.947-244.848-244.848s109.947-244.848 244.848-244.848c134.901 0 244.848 109.947 244.848 244.848s-109.947 244.848-244.848 244.848zM258.339-2.912c-123.983 0-225.353 101.37-225.353 225.353s101.37 225.353 225.353 225.353c123.983 0 225.353-101.37 225.353-225.353s-101.37-225.353-225.353-225.353zM319.942 340.186c-1.56 0-3.12 0-4.678 0l-95.131-13.256c-17.934-2.339-31.97-18.714-31.97-37.429v-88.893c-3.119 0-7.018-0.779-10.137-1.56-29.631-6.238-49.905-32.75-44.447-58.483 4.678-21.834 24.952-36.649 50.685-36.649 4.678 0 9.357 0.779 14.036 1.56 25.732 5.459 44.447 25.731 45.226 48.345 0 0 0 0.779 0 0.779v3.899c0 0 0-0.779 0-0.779 4.678-21.834 24.952-36.649 50.685-36.649 4.678 0 9.358 0.779 14.036 1.56 25.731 5.459 44.447 25.731 45.226 48.345 0 0 0 0.779 0 0.779v135.68c0 8.577-3.12 17.155-9.358 23.392-7.017 6.238-15.595 9.357-24.173 9.357zM242.744 174.095v82.656l54.584 8.577v-47.566c-3.12 0-7.017-0.779-10.137-1.56-23.392-5.459-40.548-22.613-44.447-42.107zM333.197 216.983v0-45.226c-0.779-14.036-13.255-26.512-30.411-29.631-3.12-0.779-6.238-0.779-9.358-0.779-15.595 0-28.851 8.577-31.191 21.053-3.12 15.595 10.137 31.191 29.631 35.089 3.12 0.779 6.238 0.779 9.358 0.779s7.017-0.779 10.137-0.779c0 0 0.779 0 0.779 0 2.339 0 4.678 2.339 4.678 4.678v70.179c0 7.798-5.459 13.255-13.255 13.255-0.779 0-1.56 0-2.339 0l-63.161-9.357c-8.577-1.56-15.595-9.358-15.595-17.935v-103.709c-0.78-14.036-13.256-26.512-30.411-29.631-3.119-0.779-6.238-0.779-9.357-0.779-15.595 0-28.851 8.577-31.191 21.053-3.119 15.595 10.137 31.191 29.631 35.089 3.119 0.779 6.238 0.779 9.357 0.779 3.899 0 7.018-0.779 10.917-1.56 0 0 0.78 0 0.78 0 2.339 0 3.899 1.56 3.899 3.899v106.049c0 8.577 7.018 16.375 15.595 17.935l95.131 13.256c0.779 0 1.56 0 2.339 0 7.798 0 13.255-5.459 13.255-13.256l0.779-90.453z" />
<glyph unicode="&#xe641;" d="M256.779 474.306c-134.9 0-244.848-109.947-244.848-244.848s109.947-244.848 244.848-244.848c134.9-0.779 244.848 109.168 244.848 244.067s-109.947 245.626-244.848 245.626zM256.779 3.325c-123.983 0-225.353 101.37-225.353 225.353s101.37 225.353 225.353 225.353 225.353-101.37 225.353-225.353c0-123.983-101.37-225.353-225.353-225.353zM330.858 352.662h-148.156c-27.291 0-49.905-22.613-49.905-49.905v-148.156c0-27.291 22.613-49.905 49.905-49.905h148.156c27.291 0 49.905 22.613 49.905 49.905v148.156c0 28.072-22.613 49.905-49.905 49.905zM182.702 333.168h148.156c16.375 0 30.411-13.255 30.411-30.411v-24.173h-60.041c-11.697 11.697-28.072 17.935-45.226 17.935-17.935 0-33.529-7.018-45.226-17.935h-58.483v24.173c0 17.155 13.256 30.411 30.411 30.411zM256 277.024c25.731 0 46.007-21.053 46.007-46.007 0-25.731-21.053-46.007-46.007-46.007s-46.007 21.053-46.007 46.007c-0.78 25.732 20.274 46.007 46.007 46.007zM330.858 124.969h-148.156c-16.375 0-30.411 13.255-30.411 30.411v103.709h44.447c-3.899-8.577-6.238-17.935-6.238-28.072 0-35.869 29.631-65.5 65.5-65.5s65.5 29.631 65.5 65.5c0 10.137-2.339 19.495-6.238 28.072h46.007v-103.709c0-17.155-14.036-30.411-30.411-30.411zM321.5 289.5h16.375c3.899 0 7.017 3.12 7.017 7.018v16.375c0 3.899-3.12 7.017-7.017 7.017h-16.375c-3.899 0-7.017-3.119-7.017-7.017v-16.375c0.779-3.899 3.12-7.018 7.017-7.018z" />
<glyph unicode="&#xe642;" d="M477.366 258.952h-235.073v54.827c0 61.681-50.030 111.025-111.025 111.025-61.681 0-111.025-50.030-111.025-111.025v-54.827h17.134v54.827c0 52.087 42.491 93.892 93.892 93.892 52.087 0 93.893-42.491 93.893-93.892v-54.827h-30.155c-4.798 0-8.224-4.112-8.224-8.224v-219.995c0-4.798 4.112-8.224 8.224-8.224h282.361c4.798 0 8.224 4.112 8.224 8.224v219.995c0 4.798-3.427 8.224-8.224 8.224zM468.457 38.957h-264.543v202.862h265.228v-202.862zM327.961 143.13v-24.672c0-4.798 4.112-8.224 8.224-8.224s8.224 4.112 8.224 8.224v24.672c4.798 2.741 8.224 8.224 8.224 14.392 0 9.594-7.538 17.134-17.134 17.134s-17.134-7.538-17.134-17.134c0.685-6.168 4.112-11.651 9.594-14.392z" />
</font>
</defs>
</svg>
